<?xml version="1.0" encoding="UTF-8"?>
<svg id="Layer_2" data-name="Layer 2" xmlns="http://www.w3.org/2000/svg" viewBox="0 0 778.44 776.29">
  <defs>
    <style>
      .cls-1 {
        fill: #4a4aff;
      }

      .cls-2 {
        fill: #ef8800;
      }

      .cls-3 {
        fill: #03deca;
      }

      .cls-4 {
        fill: #fac4ee;
      }

      .cls-5 {
        fill: #8c80fc;
      }

      .cls-6 {
        fill: #f143ae;
      }

      .cls-7 {
        fill: #1f1515;
      }

      .cls-8 {
        fill: #044c58;
      }

      .cls-9 {
        fill: #ffe27e;
      }
    </style>
  </defs>
  <g id="Graphics">
    <g id="Arcade">
      <g>
        <path class="cls-3" d="M519.43,616.37c-28.76,11.18-55.83,27.06-85.86,34.08-59.88,13.98-121.25-8.93-181.18-22.71-39.9-9.19-85.02-12.81-122.97-.83l-.19-100.35h390.03l.17,89.81Z"/>
        <path class="cls-8" d="M394.01,659.8c-36.2,0-72.51-9.38-107.94-18.52-11.44-2.95-23.27-6.01-34.8-8.66-32.52-7.49-79.8-13.73-120.34-.94-1.52.48-3.17.21-4.46-.73-1.28-.94-2.04-2.43-2.05-4.03l-.19-100.35c0-1.33.52-2.6,1.46-3.54s2.21-1.47,3.54-1.47h390.03c2.76,0,5,2.23,5,4.99l.17,89.81c0,2.07-1.26,3.92-3.19,4.67-9.9,3.85-19.83,8.37-29.43,12.73-18.23,8.29-37.07,16.87-57.11,21.56-13.51,3.15-27.1,4.48-40.7,4.48ZM183.67,614.32c25.62,0,50.31,4.05,69.84,8.55,11.66,2.68,23.56,5.75,35.06,8.72,47.57,12.28,96.76,24.98,143.86,13.99,19.07-4.46,37.46-12.83,55.24-20.92,8.7-3.96,17.67-8.04,26.75-11.69l-.15-81.41H134.24l.17,88.7c16.05-4.27,32.85-5.93,49.26-5.93Z"/>
      </g>
      <g>
        <rect class="cls-4" x="5" y="402.32" width="390.03" height="124.24"/>
        <path class="cls-6" d="M395.03,531.56H5C2.24,531.56,0,529.32,0,526.56v-124.24c0-2.76,2.24-5,5-5h390.03c2.76,0,5,2.24,5,5v124.24c0,2.76-2.24,5-5,5ZM10,521.56h380.03v-114.24H10v114.24Z"/>
      </g>
      <g>
        <polygon class="cls-4" points="519.72 372.54 395.03 402.32 5 402.32 129.69 372.54 519.72 372.54"/>
        <path class="cls-6" d="M395.03,407.32H5c-2.54,0-4.67-1.9-4.97-4.42-.3-2.52,1.34-4.86,3.8-5.45l124.69-29.78c.38-.09.77-.14,1.16-.14h390.03c2.54,0,4.67,1.9,4.97,4.42.3,2.52-1.34,4.86-3.8,5.45l-124.69,29.78c-.38.09-.77.14-1.16.14ZM47.46,397.32h346.98l82.82-19.78H130.28l-82.82,19.78Z"/>
      </g>
      <g>
        <path class="cls-4" d="M519.26,158.9H129.23l.46,213.64h390.03l-.46-213.64ZM481.5,336.81H171.5v-142.18h310v142.18Z"/>
        <path class="cls-6" d="M519.72,377.54H129.69c-2.76,0-4.99-2.23-5-4.99l-.46-213.64c0-1.33.52-2.6,1.46-3.54s2.21-1.47,3.54-1.47h390.03c2.76,0,4.99,2.23,5,4.99l.46,213.64c0,1.33-.52,2.6-1.46,3.54-.94.94-2.21,1.47-3.54,1.47ZM134.68,367.54h380.03l-.44-203.64H134.24l.44,203.64ZM481.5,341.81H171.5c-2.76,0-5-2.24-5-5v-142.18c0-2.76,2.24-5,5-5h310c2.76,0,5,2.24,5,5v142.18c0,2.76-2.24,5-5,5ZM176.5,331.81h300v-132.18H176.5v132.18Z"/>
      </g>
      <path class="cls-7" d="M481.5,341.81H171.5c-2.76,0-5-2.24-5-5v-142.18c0-2.76,2.24-5,5-5h310c2.76,0,5,2.24,5,5v142.18c0,2.76-2.24,5-5,5ZM176.5,331.81h300v-132.18H176.5v132.18Z"/>
      <g>
        <polygon class="cls-4" points="519.26 158.9 129.23 158.9 5 129.23 395.03 129.23 519.26 158.9"/>
        <path class="cls-6" d="M519.26,163.9H129.23c-.39,0-.78-.05-1.16-.14L3.84,134.09c-2.47-.59-4.1-2.93-3.8-5.45.3-2.52,2.43-4.42,4.97-4.42h390.03c.39,0,.78.05,1.16.14l124.23,29.67c2.47.59,4.1,2.93,3.8,5.45-.3,2.52-2.43,4.42-4.97,4.42ZM129.82,153.9h346.98l-82.36-19.67H47.46l82.36,19.67Z"/>
      </g>
      <g>
        <path class="cls-3" d="M395.03,55.84v73.39H5v-53.58c33.74-6.24,68.38-7.66,102.51-4.13,55.61,5.74,111.82,24.37,166.25,11.61,22.17-5.19,42.87-15.43,64.88-21.25,18.72-4.96,37.52-6.61,56.39-6.04Z"/>
        <path class="cls-8" d="M395.03,134.23H5C2.24,134.23,0,131.99,0,129.23v-53.58c0-2.41,1.72-4.48,4.09-4.92,34.37-6.36,69.34-7.76,103.93-4.19,16.37,1.69,32.98,4.52,49.04,7.25,38.33,6.52,77.97,13.27,115.55,4.46,11.51-2.7,22.96-6.91,34.02-10.99,9.94-3.66,20.21-7.45,30.72-10.23,18.12-4.8,37.04-6.84,57.82-6.2,2.7.08,4.85,2.29,4.85,5v73.39c0,2.76-2.24,5-5,5ZM10,124.23h380.03v-63.49c-17.91-.17-34.34,1.79-50.11,5.97-10.06,2.66-20.1,6.36-29.82,9.94-11.35,4.18-23.08,8.51-35.2,11.34-39.55,9.27-80.2,2.35-119.51-4.34-15.9-2.71-32.35-5.51-48.39-7.16-32.27-3.34-64.88-2.21-97,3.34v44.4Z"/>
      </g>
      <g>
        <path class="cls-4" d="M395.03,5v50.84c-18.87-.57-37.67,1.08-56.39,6.04-22.01,5.82-42.71,16.06-64.88,21.25-54.43,12.76-110.64-5.87-166.25-11.61-34.13-3.53-68.77-2.11-102.51,4.13V5h390.03Z"/>
        <path class="cls-6" d="M233.37,92.49c-26.11,0-52.33-4.46-77.98-8.83-15.9-2.71-32.35-5.51-48.39-7.16-33.65-3.48-67.66-2.11-101.09,4.07-1.46.27-2.96-.12-4.11-1.07S0,77.14,0,75.65V5C0,2.24,2.24,0,5,0h390.03c2.76,0,5,2.24,5,5v50.84c0,1.35-.55,2.65-1.52,3.59-.97.94-2.25,1.45-3.63,1.41-19.8-.6-37.78,1.32-54.96,5.88-10.06,2.66-20.1,6.36-29.82,9.94-11.35,4.18-23.08,8.51-35.2,11.34-13.74,3.22-27.62,4.49-41.53,4.49ZM70.64,64.62c12.48,0,24.96.64,37.39,1.93,16.37,1.69,32.98,4.52,49.04,7.25,38.33,6.52,77.97,13.27,115.55,4.46,11.51-2.7,22.96-6.91,34.02-10.99,9.94-3.66,20.21-7.45,30.72-10.23,16.61-4.4,33.89-6.48,52.67-6.31V10H10v59.69c20.09-3.38,40.37-5.07,60.64-5.07Z"/>
      </g>
      <g>
        <path class="cls-4" d="M519.72,771.29H129.69l-.27-144.38c37.95-11.98,83.07-8.36,122.97.83,59.93,13.78,121.3,36.69,181.18,22.71,30.03-7.02,57.1-22.9,85.86-34.08l.29,154.92Z"/>
        <path class="cls-6" d="M519.72,776.29H129.69c-2.76,0-4.99-2.23-5-4.99l-.27-144.38c0-2.19,1.41-4.12,3.49-4.78,42.69-13.48,91.86-7.04,125.6.73,11.66,2.68,23.56,5.75,35.06,8.72,47.57,12.28,96.76,24.98,143.86,13.99,19.07-4.46,37.46-12.83,55.24-20.92,9.72-4.42,19.78-9,29.95-12.95,1.54-.6,3.27-.4,4.63.53,1.36.93,2.18,2.47,2.18,4.12l.29,154.92c0,1.33-.52,2.6-1.46,3.54-.94.94-2.21,1.47-3.54,1.47ZM134.68,766.29h380.03l-.27-142.52c-7.63,3.17-15.23,6.63-22.63,10-18.23,8.29-37.07,16.87-57.11,21.56-49.49,11.55-99.9-1.46-148.64-14.05-11.44-2.95-23.27-6.01-34.8-8.66-31.59-7.28-77.1-13.37-116.84-1.99l.25,135.67Z"/>
      </g>
      <g>
        <path class="cls-5" d="M773.43,642.36v128.93h-253.71l-.29-154.92h.01c1.86-.73,3.72-1.44,5.6-2.12,43.01-15.63,91.03-18.59,134.84-5.32,20.22,6.13,39.3,15.56,59.35,22.27,17.53,5.88,35.77,9.61,54.2,11.16Z"/>
        <path class="cls-1" d="M773.43,776.29h-253.71c-2.76,0-5-2.23-5-4.99l-.29-154.92c0-1.33.52-2.6,1.46-3.54.54-.54,1.19-.94,1.89-1.19,2.03-.8,3.85-1.48,5.56-2.1,45.68-16.6,94.68-18.52,137.99-5.4,11.28,3.42,22.29,7.88,32.94,12.19,8.66,3.51,17.61,7.13,26.54,10.12,17.05,5.72,34.89,9.39,53.03,10.92,2.59.22,4.58,2.38,4.58,4.98v128.93c0,2.76-2.24,5-5,5ZM524.71,766.29h243.72v-119.38c-17.36-1.8-34.42-5.48-50.79-10.97-9.22-3.09-18.32-6.77-27.12-10.33-10.44-4.23-21.24-8.6-32.09-11.89-41.25-12.49-88.01-10.64-131.68,5.23-.75.27-1.51.55-2.31.85l.27,146.49Z"/>
      </g>
      <g>
        <path class="cls-3" d="M773.43,71.88v570.48c-18.43-1.55-36.67-5.28-54.2-11.16-20.05-6.71-39.13-16.14-59.35-22.27-43.81-13.27-91.83-10.31-134.84,5.32-1.88.68-3.74,1.39-5.6,2.12h-.01l-.17-89.81h-124.23v-124.24l75.73-18.09,43.22-10.32,5.74-1.37-.09-41.85-.37-171.79-124.23-29.67V55.84c91.28,2.77,184.18,57.74,276.89,44.51,34.15-4.86,67.99-18.87,101.51-28.47Z"/>
        <path class="cls-8" d="M773.43,647.36c-.14,0-.28,0-.42-.02-18.94-1.59-37.57-5.43-55.37-11.4-9.22-3.09-18.32-6.77-27.12-10.33-10.44-4.23-21.24-8.6-32.09-11.89-41.25-12.49-88.01-10.64-131.68,5.23-1.68.61-3.47,1.28-5.48,2.07-.58.23-1.2.35-1.83.35-2.76,0-5-2.23-5.01-4.99l-.16-84.82h-119.24c-2.76,0-5-2.24-5-5v-124.24c0-2.31,1.59-4.33,3.84-4.86l120.84-28.86-.44-205.75-120.4-28.75c-2.25-.54-3.84-2.55-3.84-4.86V55.84c0-1.35.55-2.65,1.52-3.59.97-.94,2.28-1.44,3.63-1.41,40,1.21,80.74,12.42,120.13,23.26,51.24,14.1,104.23,28.67,155.9,21.3,22.87-3.26,46.13-10.87,68.63-18.23,10.56-3.45,21.48-7.03,32.21-10.1,1.51-.43,3.13-.13,4.39.81,1.25.94,1.99,2.42,1.99,3.99v570.48c0,1.4-.59,2.73-1.62,3.68-.93.85-2.14,1.32-3.38,1.32ZM601.85,595.53c20.42,0,40.5,2.86,59.48,8.61,11.28,3.42,22.29,7.88,32.94,12.19,8.66,3.51,17.61,7.13,26.54,10.12,15.35,5.15,31.34,8.64,47.61,10.4V78.56c-8.51,2.56-17.11,5.38-25.48,8.12-22.91,7.49-46.59,15.24-70.33,18.62-53.72,7.67-107.73-7.19-159.96-21.56-37.11-10.21-75.44-20.75-112.63-22.69v64.23l120.39,28.75c2.25.54,3.83,2.54,3.84,4.85l.46,213.64c0,2.32-1.58,4.34-3.84,4.87l-120.85,28.86v115.29h119.23c2.76,0,5,2.23,5,4.99l.16,82.61c25.32-9.06,51.64-13.63,77.43-13.63Z"/>
      </g>
      <g>
        <path class="cls-5" d="M773.43,5v66.88c-33.52,9.6-67.36,23.61-101.51,28.47-92.71,13.23-185.61-41.74-276.89-44.51V5h378.4Z"/>
        <path class="cls-1" d="M642.26,107.39c-43.63,0-87.2-11.98-129.6-23.65-38.83-10.68-78.98-21.73-117.79-22.9-2.7-.08-4.85-2.3-4.85-5V5c0-2.76,2.24-5,5-5h378.4c2.76,0,5,2.24,5,5v66.88c0,2.23-1.48,4.19-3.62,4.81-10.56,3.02-21.38,6.57-31.85,9.99-22.91,7.49-46.59,15.24-70.33,18.62-10.12,1.44-20.24,2.09-30.36,2.09ZM400.03,51.04c38.44,1.92,77.48,12.66,115.29,23.06,51.24,14.1,104.23,28.67,155.9,21.3,22.87-3.26,46.13-10.87,68.63-18.23,9.37-3.07,19.03-6.23,28.59-9.05V10h-368.4v41.04Z"/>
      </g>
      <g>
        <rect class="cls-9" x="171.5" y="194.63" width="310" height="142.18"/>
        <path class="cls-2" d="M481.5,341.81H171.5c-2.76,0-5-2.24-5-5v-142.18c0-2.76,2.24-5,5-5h310c2.76,0,5,2.24,5,5v142.18c0,2.76-2.24,5-5,5ZM176.5,331.81h300v-132.18H176.5v132.18Z"/>
      </g>
      <rect class="cls-7" x="204.3" y="257.58" width="23.22" height="23.22"/>
      <rect class="cls-7" x="227.52" y="280.8" width="23.22" height="23.22"/>
      <rect class="cls-7" x="250.74" y="257.58" width="23.22" height="23.22"/>
      <rect class="cls-6" x="28.47" y="431.12" width="23.22" height="23.22"/>
      <rect class="cls-6" x="51.69" y="454.34" width="23.22" height="23.22"/>
      <rect class="cls-6" x="121.35" y="454.34" width="23.22" height="23.22"/>
      <rect class="cls-6" x="144.57" y="477.56" width="23.22" height="23.22"/>
      <rect class="cls-6" x="167.79" y="454.34" width="23.22" height="23.22"/>
      <rect class="cls-6" x="191.01" y="477.56" width="23.22" height="23.22"/>
      <rect class="cls-6" x="74.91" y="431.12" width="23.22" height="23.22"/>
      <rect class="cls-6" x="239.13" y="454.34" width="23.22" height="23.22"/>
      <rect class="cls-6" x="262.35" y="431.12" width="23.22" height="23.22"/>
      <rect class="cls-7" x="383.1" y="228.56" width="23.22" height="23.22"/>
      <rect class="cls-7" x="406.32" y="251.78" width="23.22" height="23.22"/>
      <rect class="cls-7" x="316.92" y="269.19" width="23.22" height="23.22"/>
      <rect class="cls-7" x="429.54" y="228.56" width="23.22" height="23.22"/>
      <g>
        <g>
          <polygon class="cls-5" points="754.59 179.35 754.59 217.75 717.06 217.75 697.86 198.56 702.13 194.28 717.06 179.35 754.59 179.35"/>
          <path class="cls-1" d="M754.6,222.75h-37.54c-1.33,0-2.6-.53-3.54-1.46l-19.19-19.19c-1.95-1.95-1.95-5.11,0-7.07l19.2-19.21c.94-.94,2.21-1.46,3.54-1.46h37.54c2.76,0,5,2.24,5,5v38.4c0,2.76-2.24,5-5,5ZM719.13,212.75h30.47v-28.4h-30.47l-14.2,14.2,14.2,14.2Z"/>
        </g>
        <g>
          <polygon class="cls-5" points="717.06 141.81 717.06 179.35 702.13 194.28 697.86 198.56 678.66 179.35 678.66 141.81 717.06 141.81"/>
          <path class="cls-1" d="M697.86,203.56c-1.33,0-2.6-.53-3.54-1.46l-19.2-19.2c-.94-.94-1.46-2.21-1.46-3.54v-37.54c0-2.76,2.24-5,5-5h38.4c2.76,0,5,2.24,5,5v37.54c0,1.33-.53,2.6-1.46,3.54l-19.19,19.2c-.94.94-2.21,1.47-3.54,1.47h0ZM683.66,177.28l14.2,14.2,14.2-14.2v-30.47h-28.4v30.47Z"/>
        </g>
        <g>
          <polygon class="cls-5" points="717.06 217.75 717.06 255.3 678.66 255.3 678.66 217.75 697.86 198.56 717.06 217.75"/>
          <path class="cls-1" d="M717.06,260.3h-38.4c-2.76,0-5-2.24-5-5v-37.55c0-1.33.53-2.6,1.46-3.54l19.2-19.19c1.95-1.95,5.12-1.95,7.07,0l19.19,19.19c.94.94,1.46,2.21,1.46,3.54v37.55c0,2.76-2.24,5-5,5ZM683.66,250.3h28.4v-30.48l-14.19-14.19-14.2,14.19v30.48Z"/>
        </g>
        <g>
          <polygon class="cls-5" points="697.86 198.56 678.66 217.75 641.12 217.75 641.12 179.35 678.66 179.35 697.86 198.56"/>
          <path class="cls-1" d="M678.66,222.75h-37.54c-2.76,0-5-2.24-5-5v-38.4c0-2.76,2.24-5,5-5h37.54c1.33,0,2.6.53,3.54,1.46l19.2,19.2c.94.94,1.46,2.21,1.46,3.54s-.53,2.6-1.46,3.54l-19.2,19.19c-.94.94-2.21,1.46-3.54,1.46ZM646.12,212.75h30.47l14.2-14.19-14.2-14.2h-30.47v28.4Z"/>
        </g>
      </g>
      <g>
        <g>
          <polygon class="cls-5" points="773.43 390.48 773.43 447.22 754.23 428.02 754.23 390.48 773.43 390.48"/>
          <path class="cls-1" d="M773.43,452.22c-1.3,0-2.58-.51-3.54-1.46l-19.2-19.2c-.94-.94-1.46-2.21-1.46-3.54v-37.54c0-2.76,2.24-5,5-5h19.2c2.76,0,5,2.24,5,5v56.74c0,2.02-1.22,3.85-3.09,4.62-.62.26-1.27.38-1.91.38ZM759.23,425.95l9.2,9.2v-39.67h-9.2v30.47Z"/>
        </g>
        <g>
          <polygon class="cls-5" points="773.43 447.22 773.43 503.96 754.23 503.96 754.23 466.41 773.43 447.22"/>
          <path class="cls-1" d="M773.43,508.96h-19.2c-2.76,0-5-2.24-5-5v-37.55c0-1.33.53-2.6,1.47-3.54l19.2-19.19c1.43-1.43,3.58-1.86,5.45-1.08,1.87.77,3.09,2.6,3.09,4.62v56.74c0,2.76-2.24,5-5,5ZM759.23,498.96h9.2v-39.67l-9.2,9.2v30.48Z"/>
        </g>
        <g>
          <polygon class="cls-5" points="773.44 447.22 754.23 466.41 716.69 466.41 716.69 428.02 754.23 428.02 773.44 447.22"/>
          <path class="cls-1" d="M754.23,471.41h-37.54c-2.76,0-5-2.24-5-5v-38.4c0-2.76,2.24-5,5-5h37.54c1.33,0,2.6.53,3.54,1.46l19.2,19.2c.94.94,1.46,2.21,1.46,3.54s-.53,2.6-1.47,3.54l-19.2,19.19c-.94.94-2.21,1.46-3.53,1.46ZM721.69,461.41h30.47l14.2-14.19-14.2-14.2h-30.47v28.4Z"/>
        </g>
      </g>
      <g>
        <g>
          <polygon class="cls-5" points="584.23 368.23 584.23 406.62 546.69 406.62 527.5 387.43 531.76 383.16 546.69 368.23 584.23 368.23"/>
          <path class="cls-1" d="M584.23,411.62h-37.54c-1.33,0-2.6-.53-3.54-1.46l-19.19-19.19c-1.95-1.95-1.95-5.11,0-7.07l19.2-19.21c.94-.94,2.21-1.46,3.54-1.46h37.54c2.76,0,5,2.24,5,5v38.4c0,2.76-2.24,5-5,5ZM548.76,401.62h30.47v-28.4h-30.47l-14.2,14.2,14.2,14.2Z"/>
        </g>
        <g>
          <polygon class="cls-5" points="546.69 330.69 546.69 368.23 531.76 383.16 527.5 387.43 513.98 373.91 519.72 372.54 519.63 330.69 546.69 330.69"/>
          <path class="cls-1" d="M527.5,392.43c-1.33,0-2.6-.53-3.54-1.46l-13.52-13.52c-1.28-1.28-1.77-3.15-1.28-4.9.49-1.74,1.89-3.08,3.65-3.5l1.89-.45-.08-37.89c0-1.33.52-2.6,1.46-3.54.94-.94,2.21-1.47,3.54-1.47h27.06c2.76,0,5,2.24,5,5v37.54c0,1.33-.53,2.6-1.46,3.54l-19.19,19.2c-.94.94-2.21,1.47-3.54,1.47h0ZM523.24,376.1l4.26,4.26,14.19-14.2v-30.47h-17.05l.08,36.84c0,1.38-.56,2.65-1.48,3.57Z"/>
        </g>
        <g>
          <polygon class="cls-5" points="546.69 406.62 546.69 444.17 508.3 444.17 508.3 406.62 527.5 387.43 546.69 406.62"/>
          <path class="cls-1" d="M546.69,449.17h-38.4c-2.76,0-5-2.24-5-5v-37.55c0-1.33.53-2.6,1.46-3.54l19.2-19.19c1.95-1.95,5.12-1.95,7.07,0l19.19,19.19c.94.94,1.46,2.21,1.46,3.54v37.55c0,2.76-2.24,5-5,5ZM513.3,439.17h28.4v-30.48l-14.19-14.19-14.2,14.19v30.48Z"/>
        </g>
        <g>
          <polygon class="cls-5" points="527.5 387.43 508.3 406.62 470.76 406.62 470.76 384.23 513.98 373.91 527.5 387.43"/>
          <path class="cls-1" d="M508.3,411.62h-37.54c-2.76,0-5-2.24-5-5v-22.39c0-2.31,1.59-4.33,3.84-4.86l43.22-10.32c1.69-.4,3.47.1,4.7,1.33l13.52,13.52c.94.94,1.46,2.21,1.46,3.54s-.53,2.6-1.47,3.54l-19.2,19.19c-.94.94-2.21,1.46-3.53,1.46ZM475.76,401.62h30.47l14.2-14.19-8.01-8.01-36.66,8.75v13.44Z"/>
        </g>
      </g>
    </g>
  </g>
</svg>