<?xml version="1.0" encoding="UTF-8"?>
<svg id="Layer_2" data-name="Layer 2" xmlns="http://www.w3.org/2000/svg" viewBox="0 0 529.29 529.29">
  <defs>
    <style>
      .cls-1 {
        fill: #4a4aff;
      }

      .cls-2 {
        fill: #ef8800;
      }

      .cls-3 {
        fill: #fff;
      }

      .cls-4 {
        fill: #fac4ee;
      }

      .cls-5 {
        fill: #8c80fc;
      }

      .cls-6 {
        fill: #f143ae;
      }

      .cls-7 {
        fill: #ffe27e;
      }
    </style>
  </defs>
  <g id="Graphics">
    <g id="Disc">
      <g>
        <path class="cls-4" d="M264.65,5c-16.65,0-32.94,1.57-48.72,4.57-2.99,8.31-5.43,16.8-7.23,25.36-3.53,16.82-4.9,33.71,3.53,49.38,5.28,9.8,14.16,16.9,20.02,26.33,7.05,11.38,12.2,24.3,14.88,37.12,1.93,9.23,3.25,18.81,3.79,28.41-8.57,1.32-16.74,3.85-24.32,7.42-18.52-32.85-55-52.64-74.43-84.91-9.16-15.21-14.37-32.53-14.97-50.28-.11-3.32-.12-6.66-.03-10-10.17,5.74-19.92,12.15-29.17,19.17.46,7.84,1.26,15.65,2.43,23.34,3.54,23.43,9.91,45.91,28.35,62.07,11.52,10.11,26.42,15,38.53,24.36,10.86,8.41,20.77,18.44,29.11,29.31-14.54,12.45-25.03,29.49-29.25,48.87-35.63-19.37-77.23-29.76-109.03-55.05-14.54-11.56-26.72-25.77-35.83-41.85-17.48,34.92-27.31,74.33-27.31,116.03,0,143.39,116.25,259.64,259.65,259.64,43.96,0,85.36-10.92,121.65-30.21-.46-11.18-1.17-23.34-2.11-28.68-2.99-16.93-8-33.12-21.66-44.52-8.55-7.13-19.44-10.41-28.39-16.99-10.78-7.93-20.37-18-27.63-28.9-4.23-6.36-10.53-16.6-14.97-24.93,9.36-2.94,18.05-7.38,25.8-13.04,28.83,18,69.01,28.08,95.58,48.16,14.16,10.71,25.44,24.83,32.62,41.09,1.42,3.21,2.73,12.24,3.94,20.71,8.89-9,17.12-18.65,24.62-28.87-4.34-9.21-12.39-26.15-15.83-31.99-12.01-20.42-26.29-38.91-49.42-47.05-14.46-5.09-30.11-4.08-44.83-8.26-8.08-2.29-19.58-7.21-28.5-11.47,11.69-15.12,18.65-34.09,18.65-54.69,0-1.51-.04-3.02-.12-4.51,32.88.98,73.02-.31,102.68,8.55,23.45,7.01,44.82,19.82,61.91,37.35.16.16,1.02.48,2.23.89,2.25-13.76,3.42-27.88,3.42-42.28C524.29,121.25,408.04,5,264.65,5ZM264.65,301.82c-20.53,0-37.18-16.64-37.18-37.17s16.65-37.18,37.18-37.18,37.17,16.65,37.17,37.18-16.64,37.17-37.17,37.17Z"/>
        <path class="cls-6" d="M264.65,529.29c-70.69,0-137.15-27.53-187.14-77.51C27.53,401.79,0,335.34,0,264.65c0-41.57,9.37-81.37,27.84-118.27.83-1.65,2.5-2.71,4.34-2.76,1.85-.05,3.57.93,4.48,2.53,8.82,15.57,20.46,29.17,34.59,40.4,19.29,15.34,42.99,25.34,65.91,35.02,12.2,5.15,24.76,10.45,36.73,16.57,4.67-15.94,13.6-30.58,25.7-42.07-7.5-9.19-16.19-17.7-25.34-24.79-5.24-4.05-11.04-7.21-17.17-10.56-7.35-4.01-14.94-8.16-21.59-13.99-20.48-17.95-26.66-42.97-30-65.08-1.17-7.67-2-15.68-2.48-23.79-.1-1.66.64-3.27,1.97-4.28,9.41-7.14,19.41-13.71,29.74-19.54,1.57-.89,3.49-.86,5.04.07,1.54.93,2.47,2.62,2.42,4.42-.09,3.23-.08,6.5.03,9.7.57,16.77,5.5,33.32,14.26,47.87,9.12,15.15,22.62,27.89,35.68,40.21,13.16,12.42,26.74,25.23,36.5,40.91,5.48-2.26,11.16-4,16.99-5.19-.63-7.67-1.76-15.48-3.39-23.26-2.59-12.37-7.51-24.65-14.24-35.51-2.48-3.99-5.58-7.57-8.87-11.36-4.02-4.64-8.19-9.45-11.3-15.23-9.57-17.79-7.4-36.66-4.02-52.78,1.81-8.63,4.31-17.39,7.42-26.03.6-1.67,2.03-2.89,3.77-3.22,16.26-3.09,32.96-4.66,49.65-4.66,70.69,0,137.14,27.53,187.13,77.51,49.98,49.99,77.51,116.45,77.51,187.14,0,14.45-1.17,28.94-3.49,43.09-.24,1.45-1.1,2.72-2.36,3.48-1.26.76-2.79.92-4.18.45-2.18-.74-3.23-1.16-4.16-2.09-16.41-16.83-37.08-29.3-59.81-36.09-23.43-7-54.62-7.5-82.15-7.95-4.82-.08-9.45-.15-13.98-.26-.12,18.8-5.64,36.67-16.05,52.08,8.69,3.94,16.75,7.08,22.27,8.64,6.38,1.81,12.94,2.59,19.89,3.41,8.31.99,16.9,2,25.24,4.94,25.68,9.04,40.73,29.96,52.07,49.23,2.58,4.38,7.98,15.28,16.04,32.39.78,1.66.59,3.61-.49,5.09-7.62,10.38-16.06,20.28-25.09,29.43-1.33,1.35-3.32,1.83-5.12,1.23-1.8-.59-3.12-2.16-3.38-4.04-.95-6.67-2.39-16.75-3.56-19.39-6.78-15.35-17.52-28.88-31.06-39.12-14.21-10.74-33.08-18.79-51.32-26.57-14.02-5.98-28.47-12.15-41.05-19.61-5.88,3.99-12.17,7.28-18.77,9.83,3.97,6.99,8.58,14.4,11.9,19.4,7,10.51,16.14,20.07,26.43,27.64,3.79,2.79,8.01,4.96,12.48,7.26,5.46,2.81,11.11,5.71,16.15,9.92,15.5,12.93,20.52,31.26,23.38,47.49,1.05,5.97,1.77,19.25,2.18,29.34.08,1.92-.95,3.72-2.65,4.62-37.9,20.15-80.78,30.79-124,30.79ZM32.84,159.1c-15.16,33.16-22.84,68.62-22.84,105.55,0,140.41,114.24,254.64,254.65,254.64,40.53,0,80.75-9.73,116.52-28.17-.55-12.19-1.21-20.95-1.9-24.86-2.55-14.44-6.92-30.68-19.94-41.55-4.2-3.5-9.11-6.03-14.32-8.71-4.62-2.38-9.39-4.83-13.83-8.09-11.22-8.25-21.19-18.68-28.83-30.16-4.29-6.45-10.66-16.79-15.22-25.35-.7-1.31-.78-2.87-.22-4.25.56-1.38,1.71-2.43,3.13-2.88,8.73-2.74,16.92-6.88,24.35-12.31,1.65-1.2,3.87-1.28,5.6-.2,12.55,7.83,27.79,14.33,42.52,20.62,18.8,8.02,38.24,16.31,53.43,27.79,14.9,11.27,26.72,26.16,34.18,43.06,1.03,2.34,1.9,6.41,2.79,11.86,5.42-5.94,10.57-12.15,15.39-18.57-8.96-18.94-12.74-26.17-14.34-28.88-10.42-17.72-24.12-36.9-46.77-44.87-7.3-2.57-14.97-3.48-23.1-4.44-7.03-.83-14.3-1.7-21.44-3.72-10.61-3.01-25.1-9.77-29.29-11.77-1.36-.65-2.36-1.88-2.71-3.35-.35-1.47-.02-3.02.91-4.22,11.52-14.9,17.61-32.75,17.61-51.63,0-1.42-.04-2.85-.11-4.24-.08-1.4.44-2.76,1.42-3.76.98-1,2.35-1.55,3.73-1.5,6.14.18,12.44.29,19.11.39,28.17.46,60.1.97,84.85,8.36,22.08,6.6,42.34,18.2,59.02,33.72,1.4-10.89,2.11-21.95,2.11-32.97,0-140.42-114.23-254.65-254.64-254.65-15.1,0-30.21,1.33-44.96,3.96-2.51,7.33-4.56,14.71-6.09,22-3.01,14.35-5,31.03,3.04,45.98,2.59,4.81,6.22,9,10.06,13.42,3.4,3.92,6.91,7.97,9.81,12.64,7.34,11.84,12.71,25.24,15.53,38.73,2.04,9.76,3.35,19.57,3.89,29.15.14,2.57-1.69,4.83-4.23,5.22-7.97,1.23-15.69,3.58-22.95,7-2.37,1.12-5.2.21-6.49-2.07-9.12-16.17-22.65-28.94-36.97-42.46-13.55-12.79-27.56-26-37.39-42.33-9.64-16-15.06-34.22-15.68-52.69-.02-.48-.03-.95-.04-1.43-6.53,3.98-12.89,8.27-19,12.81.48,6.89,1.22,13.68,2.21,20.21,3.07,20.33,8.64,43.24,26.7,59.06,5.82,5.11,12.6,8.81,19.79,12.73,6.21,3.39,12.63,6.89,18.5,11.43,11.17,8.65,21.27,18.82,30.02,30.22,1.62,2.11,1.3,5.11-.71,6.84-13.93,11.93-23.74,28.31-27.62,46.14-.33,1.54-1.37,2.83-2.8,3.48-1.43.65-3.09.6-4.47-.15-13.2-7.18-27.59-13.25-41.51-19.12-23.54-9.94-47.89-20.21-68.25-36.41-12.66-10.07-23.46-21.91-32.19-35.29ZM264.65,306.82c-23.26,0-42.18-18.92-42.18-42.17s18.92-42.18,42.18-42.18,42.17,18.92,42.17,42.18-18.92,42.17-42.17,42.17ZM264.65,232.47c-17.74,0-32.18,14.44-32.18,32.18s14.44,32.17,32.18,32.17,32.17-14.43,32.17-32.17-14.43-32.18-32.17-32.18Z"/>
      </g>
      <g>
        <path class="cls-5" d="M449.48,446.98c-18.46,18.72-39.75,34.66-63.18,47.1-.46-11.18-1.17-23.34-2.11-28.68-2.99-16.93-8-33.12-21.66-44.52-8.55-7.13-19.44-10.41-28.39-16.99-10.78-7.93-20.37-18-27.63-28.9-4.23-6.36-10.53-16.6-14.97-24.93,9.36-2.94,18.05-7.38,25.8-13.04,28.83,18,69.01,28.08,95.58,48.16,14.16,10.71,25.44,24.83,32.62,41.09,1.42,3.21,2.73,12.24,3.94,20.71Z"/>
        <path class="cls-1" d="M386.3,499.08c-.86,0-1.72-.22-2.49-.66-1.49-.85-2.44-2.42-2.51-4.13-.57-13.83-1.29-23.78-2.04-28.02-2.55-14.44-6.92-30.68-19.94-41.55-4.2-3.5-9.11-6.03-14.32-8.71-4.62-2.38-9.39-4.83-13.83-8.09-11.22-8.25-21.19-18.68-28.83-30.16-4.29-6.45-10.66-16.79-15.22-25.35-.7-1.31-.78-2.87-.22-4.25.56-1.38,1.71-2.43,3.13-2.88,8.73-2.74,16.92-6.88,24.35-12.31,1.65-1.2,3.87-1.28,5.6-.2,12.55,7.83,27.79,14.33,42.52,20.62,18.8,8.02,38.24,16.31,53.43,27.79,14.9,11.27,26.72,26.16,34.18,43.06,1.6,3.62,2.8,11.41,4.32,22.02.22,1.55-.29,3.11-1.39,4.22-18.98,19.24-40.64,35.39-64.4,48-.73.39-1.54.58-2.34.58ZM298.77,352.82c3.97,6.99,8.58,14.4,11.9,19.4,7,10.51,16.14,20.07,26.43,27.64,3.79,2.79,8.01,4.96,12.48,7.25,5.46,2.81,11.11,5.71,16.15,9.92,15.5,12.93,20.52,31.26,23.38,47.49.79,4.47,1.38,13.04,1.81,21.29,19.42-11.11,37.3-24.73,53.25-40.6-.93-6.46-2.18-14.59-3.21-16.93-6.78-15.35-17.52-28.88-31.06-39.12-14.21-10.74-33.08-18.79-51.32-26.57-14.02-5.98-28.47-12.15-41.05-19.61-5.88,3.99-12.17,7.28-18.77,9.83Z"/>
      </g>
      <g>
        <path class="cls-5" d="M520.87,306.93c-6.73,41.07-23.1,78.91-46.7,111.09-.02.03-.05.06-.07.09-4.34-9.21-12.39-26.15-15.83-31.99-12.01-20.42-26.29-38.91-49.42-47.05-14.46-5.09-30.11-4.08-44.83-8.26-8.08-2.29-19.58-7.21-28.5-11.47,11.69-15.12,18.65-34.09,18.65-54.69,0-1.51-.04-3.02-.12-4.51,32.88.98,73.02-.31,102.68,8.55,23.45,7.01,44.82,19.82,61.91,37.35.16.16,1.02.48,2.23.89Z"/>
        <path class="cls-1" d="M474.1,423.11c-.13,0-.26,0-.39-.01-1.79-.14-3.37-1.23-4.14-2.85-9.88-20.97-13.95-28.75-15.61-31.58-10.42-17.72-24.12-36.9-46.77-44.87-7.3-2.57-14.97-3.48-23.1-4.44-7.03-.83-14.3-1.7-21.44-3.72-10.61-3.01-25.1-9.77-29.29-11.77-1.36-.65-2.36-1.88-2.71-3.35-.35-1.47-.02-3.02.91-4.22,11.52-14.9,17.61-32.75,17.61-51.63,0-1.42-.04-2.85-.11-4.24-.08-1.4.44-2.76,1.42-3.76.98-1,2.32-1.55,3.73-1.5,6.14.18,12.44.29,19.11.39,28.17.46,60.1.97,84.85,8.36,24.05,7.19,45.95,20.31,63.4,37.98.21.08.51.18.92.32,2.32.79,3.72,3.13,3.33,5.54-6.67,40.71-23.13,79.87-47.6,113.24h0c-.05.06-.1.13-.14.19-.95,1.23-2.41,1.94-3.96,1.94ZM343.12,317.36c8.69,3.94,16.75,7.08,22.27,8.64,6.38,1.81,12.94,2.59,19.89,3.41,8.31.99,16.9,2,25.24,4.94,25.68,9.04,40.73,29.96,52.07,49.23,2.17,3.68,6.33,11.96,12.38,24.67,20.19-29.54,34.05-63.35,40.35-98.48-.07-.06-.14-.13-.21-.2-16.41-16.83-37.08-29.3-59.81-36.09-23.43-7-54.62-7.5-82.15-7.95-4.82-.08-9.45-.15-13.98-.26-.12,18.8-5.64,36.67-16.05,52.08ZM521.03,301.67h0,0Z"/>
      </g>
      <g>
        <path class="cls-5" d="M250.92,176.17c-8.57,1.32-16.74,3.85-24.32,7.42-18.52-32.85-55-52.64-74.43-84.91-9.16-15.21-14.37-32.53-14.97-50.28-.11-3.32-.12-6.66-.03-10,24.12-13.62,50.63-23.5,78.76-28.83-2.99,8.31-5.43,16.8-7.23,25.36-3.53,16.82-4.9,33.71,3.53,49.38,5.28,9.8,14.16,16.9,20.02,26.33,7.05,11.38,12.2,24.3,14.88,37.12,1.93,9.23,3.25,18.81,3.79,28.41Z"/>
        <path class="cls-1" d="M226.6,188.59c-1.75,0-3.44-.92-4.36-2.55-9.12-16.17-22.65-28.94-36.97-42.46-13.55-12.79-27.56-26-37.39-42.33-9.64-16-15.06-34.22-15.68-52.69-.11-3.41-.12-6.87-.03-10.3.05-1.75,1.01-3.36,2.54-4.22,25.07-14.16,52.08-24.04,80.29-29.39,1.76-.33,3.57.3,4.73,1.67,1.17,1.37,1.51,3.25.9,4.94-2.95,8.21-5.32,16.52-7.04,24.7-3.01,14.35-5,31.03,3.04,45.98,2.59,4.81,6.22,9,10.06,13.42,3.4,3.92,6.91,7.97,9.81,12.64,7.34,11.84,12.71,25.24,15.53,38.73,2.04,9.76,3.35,19.57,3.89,29.15.14,2.57-1.69,4.83-4.23,5.22-7.97,1.23-15.69,3.58-22.95,7-.69.32-1.41.48-2.13.48ZM142.12,41.37c-.02,2.3,0,4.6.08,6.87.57,16.77,5.5,33.32,14.26,47.87,9.12,15.15,22.62,27.89,35.68,40.21,13.16,12.42,26.74,25.23,36.5,40.91,5.48-2.26,11.16-4,16.99-5.19-.63-7.67-1.76-15.48-3.39-23.26-2.59-12.37-7.51-24.65-14.24-35.51-2.48-3.99-5.58-7.57-8.87-11.36-4.02-4.64-8.19-9.45-11.3-15.23-9.57-17.79-7.4-36.66-4.02-52.78,1.23-5.86,2.78-11.77,4.62-17.67-23.16,5.21-45.42,13.65-66.31,25.14Z"/>
      </g>
      <g>
        <path class="cls-5" d="M206.42,196.65c-14.54,12.45-25.03,29.49-29.25,48.87-35.63-19.37-77.23-29.76-109.03-55.05-14.54-11.56-26.72-25.77-35.83-41.85,17.95-35.88,43.97-67.03,75.69-91.05.46,7.84,1.26,15.65,2.43,23.34,3.54,23.43,9.91,45.91,28.35,62.07,11.52,10.11,26.42,15,38.53,24.36,10.86,8.41,20.77,18.44,29.11,29.31Z"/>
        <path class="cls-1" d="M177.17,250.52c-.82,0-1.65-.2-2.39-.61-13.2-7.18-27.59-13.25-41.51-19.12-23.54-9.94-47.89-20.21-68.25-36.41-15.14-12.03-27.61-26.6-37.07-43.3-.82-1.45-.87-3.21-.12-4.7,18.12-36.21,44.79-68.3,77.14-92.8,1.47-1.12,3.44-1.33,5.11-.55,1.68.77,2.79,2.41,2.9,4.25.46,7.81,1.26,15.5,2.38,22.88,3.07,20.33,8.64,43.24,26.7,59.06,5.82,5.11,12.6,8.81,19.79,12.73,6.21,3.39,12.63,6.89,18.5,11.43,11.17,8.65,21.27,18.82,30.02,30.22,1.62,2.11,1.3,5.11-.71,6.84-13.93,11.93-23.74,28.31-27.62,46.14-.33,1.54-1.37,2.83-2.8,3.48-.66.3-1.37.45-2.08.45ZM38,148.46c8.65,14.61,19.83,27.42,33.26,38.09,19.29,15.34,42.99,25.34,65.91,35.02,12.2,5.15,24.76,10.45,36.73,16.57,4.67-15.94,13.6-30.58,25.7-42.07-7.5-9.19-16.19-17.7-25.34-24.79-5.24-4.05-11.04-7.21-17.17-10.56-7.35-4.01-14.94-8.16-21.59-13.99-20.48-17.95-26.66-42.97-30-65.08-.71-4.68-1.3-9.49-1.76-14.37-27.16,22.19-49.74,50.05-65.73,81.17Z"/>
      </g>
      <g>
        <path class="cls-7" d="M354.05,260.14c-2.34-47.35-41.47-85.02-89.4-85.02-4.67,0-9.26.36-13.73,1.05-8.57,1.32-16.74,3.85-24.32,7.42-7.32,3.44-14.1,7.84-20.18,13.06-14.54,12.45-25.03,29.49-29.25,48.87-1.34,6.16-2.05,12.56-2.05,19.13,0,49.44,40.08,89.52,89.53,89.52,9.37,0,18.4-1.44,26.89-4.11,9.36-2.94,18.05-7.38,25.8-13.04,6.87-5,12.99-10.96,18.18-17.68,11.69-15.12,18.65-34.09,18.65-54.69,0-1.51-.04-3.02-.12-4.51ZM264.65,301.82c-20.53,0-37.18-16.64-37.18-37.17s16.65-37.18,37.18-37.18,37.17,16.65,37.17,37.18-16.64,37.17-37.17,37.17Z"/>
        <path class="cls-2" d="M264.65,359.17c-52.12,0-94.53-42.4-94.53-94.52,0-6.8.73-13.59,2.16-20.19,4.34-19.94,15.31-38.27,30.88-51.61,6.44-5.53,13.61-10.17,21.3-13.79,8.12-3.83,16.77-6.46,25.69-7.84,4.77-.74,9.64-1.11,14.49-1.11,50.44,0,91.9,39.43,94.39,89.76.08,1.57.13,3.17.13,4.77,0,21.11-6.81,41.08-19.69,57.75-5.49,7.11-11.95,13.39-19.19,18.67-8.3,6.06-17.47,10.7-27.24,13.77-9.16,2.88-18.71,4.34-28.39,4.34ZM264.65,180.12c-4.34,0-8.7.33-12.97.99-7.97,1.23-15.69,3.58-22.95,7-6.88,3.23-13.29,7.38-19.05,12.33-13.93,11.93-23.74,28.31-27.62,46.14-1.28,5.9-1.94,11.98-1.94,18.07,0,46.6,37.92,84.52,84.53,84.52,8.66,0,17.2-1.3,25.39-3.88,8.73-2.74,16.92-6.88,24.35-12.31,6.48-4.72,12.26-10.33,17.17-16.7,11.52-14.9,17.61-32.75,17.61-51.63,0-1.42-.04-2.85-.11-4.24,0,0,0-.01,0-.02-2.22-45.01-39.3-80.27-84.41-80.27ZM264.65,306.82c-23.26,0-42.18-18.92-42.18-42.17s18.92-42.18,42.18-42.18,42.17,18.92,42.17,42.18-18.92,42.17-42.17,42.17ZM264.65,232.47c-17.74,0-32.18,14.44-32.18,32.18s14.44,32.17,32.18,32.17,32.17-14.43,32.17-32.17-14.43-32.18-32.17-32.18Z"/>
      </g>
      <rect class="cls-3" x="278.6" y="193.76" width="23.22" height="23.22"/>
      <rect class="cls-3" x="301.82" y="216.98" width="23.22" height="23.22"/>
      <rect class="cls-3" x="384.21" y="69.16" width="23.22" height="23.22"/>
      <rect class="cls-3" x="407.43" y="92.38" width="23.22" height="23.22"/>
      <rect class="cls-3" x="460.26" y="182.15" width="23.22" height="23.22"/>
      <rect class="cls-3" x="384.21" y="115.6" width="23.22" height="23.22"/>
      <rect class="cls-3" x="48.21" y="232.3" width="23.22" height="23.22"/>
      <rect class="cls-3" x="24.99" y="255.52" width="23.22" height="23.22"/>
    </g>
  </g>
</svg>