<?xml version="1.0" encoding="UTF-8"?>
<svg id="Layer_2" data-name="Layer 2" xmlns="http://www.w3.org/2000/svg" viewBox="0 0 877.8 685.58">
  <defs>
    <style>
      .cls-1 {
        fill: #4a4aff;
      }

      .cls-2 {
        fill: #ef8800;
      }

      .cls-3 {
        fill: #fff;
      }

      .cls-4 {
        fill: #fac4ee;
      }

      .cls-5 {
        fill: #8c80fc;
      }

      .cls-6 {
        fill: #1f1515;
      }

      .cls-7 {
        fill: #ff4d56;
      }

      .cls-8 {
        fill: #e20000;
      }

      .cls-9 {
        fill: #ffe27e;
      }
    </style>
  </defs>
  <g id="Graphics">
    <g id="Game_Console_01" data-name="Game Console 01">
      <g>
        <polygon class="cls-5" points="798.62 372.66 79.18 372.66 5 606.8 872.8 606.8 798.62 372.66"/>
        <path class="cls-1" d="M872.8,611.8H5c-1.59,0-3.09-.76-4.03-2.05s-1.21-2.94-.73-4.46l74.18-234.14c.66-2.08,2.59-3.49,4.77-3.49h719.44c2.18,0,4.11,1.41,4.77,3.49l74.18,234.14c.48,1.52.21,3.18-.73,4.46s-2.44,2.05-4.03,2.05ZM11.83,601.8h854.14l-71.01-224.14H82.84L11.83,601.8Z"/>
      </g>
      <g>
        <path class="cls-9" d="M709.61,493.6c-47.29-10.92-100.27.77-150,6.55-68.63,7.98-138.7,3.49-205.74-13.19-27.4-6.81-54.62-15.69-82.82-16.8-35.56-1.38-69.82,9.6-102.91,23.63l20.79-72.13h499.95l20.73,71.94Z"/>
        <path class="cls-2" d="M492.79,509.03c-47.13,0-94.04-5.75-140.13-17.22-5.75-1.43-11.58-2.97-17.22-4.46-21.06-5.57-42.83-11.33-64.59-12.19-37.32-1.45-73.45,11.66-100.76,23.24-1.77.75-3.83.42-5.27-.86-1.44-1.28-2.02-3.27-1.49-5.13l20.79-72.13c.62-2.14,2.58-3.62,4.8-3.62h499.95c2.23,0,4.19,1.47,4.8,3.62l20.73,71.94c.49,1.7.04,3.54-1.18,4.82s-3.03,1.83-4.75,1.43c-36.93-8.53-78.15-2.83-118.01,2.68-9.97,1.38-20.28,2.8-30.29,3.97-22.47,2.61-44.96,3.92-67.39,3.92ZM265.12,465.05c2.04,0,4.07.04,6.12.12,22.87.9,45.18,6.81,66.76,12.52,5.6,1.48,11.39,3.01,17.07,4.43,66.87,16.64,135.49,21.04,203.96,13.08,9.9-1.15,20.15-2.57,30.07-3.94,37.89-5.24,76.99-10.64,113.42-4.19l-17.4-60.4H192.69l-16.88,58.55c25.32-10.17,56.54-20.16,89.31-20.16Z"/>
      </g>
      <g>
        <path class="cls-7" d="M728.12,557.8H149.68l18.45-64.01h.01c33.09-14.03,67.35-25.01,102.91-23.63,28.2,1.11,55.42,9.99,82.82,16.8,67.04,16.68,137.11,21.17,205.74,13.19,49.73-5.78,102.71-17.47,150-6.55l18.51,64.2Z"/>
        <path class="cls-8" d="M728.12,562.8H149.68c-1.57,0-3.05-.74-4-1.99-.94-1.25-1.24-2.88-.81-4.39l18.45-64.01c.45-1.55,1.6-2.75,3.05-3.3,28.25-11.97,65.65-25.46,104.87-23.94,22.87.9,45.18,6.81,66.76,12.52,5.6,1.48,11.39,3.01,17.07,4.43,66.87,16.64,135.49,21.04,203.96,13.08,9.9-1.15,20.15-2.57,30.07-3.94,40.76-5.63,82.91-11.46,121.63-2.52,1.77.41,3.18,1.74,3.68,3.49l18.51,64.2c.43,1.51.13,3.14-.81,4.39-.94,1.26-2.42,1.99-4,1.99ZM156.32,552.8h565.15l-15.84-54.96c-36.19-7.6-76.32-2.06-115.16,3.31-9.97,1.38-20.28,2.8-30.29,3.97-69.66,8.1-139.49,3.62-207.52-13.3-5.75-1.43-11.58-2.97-17.22-4.46-21.06-5.57-42.83-11.33-64.59-12.19-36.35-1.41-71.54,10.98-98.58,22.32l-15.95,55.33Z"/>
      </g>
      <g>
        <path class="cls-5" d="M79.18,5v367.66h719.44V5H79.18ZM679.39,321.73H198.41V55.93h480.98v265.8Z"/>
        <path class="cls-1" d="M798.62,377.66H79.18c-2.76,0-5-2.24-5-5V5c0-2.76,2.24-5,5-5h719.44c2.76,0,5,2.24,5,5v367.66c0,2.76-2.24,5-5,5ZM84.18,367.66h709.44V10H84.18v357.66ZM679.39,326.73H198.41c-2.76,0-5-2.24-5-5V55.93c0-2.76,2.24-5,5-5h480.98c2.76,0,5,2.24,5,5v265.8c0,2.76-2.24,5-5,5ZM203.41,316.73h470.98V60.93H203.41v255.8Z"/>
      </g>
      <g>
        <path class="cls-9" d="M679.39,55.93v188.1c-33.97.44-69.26,7.09-103.04,11.02-68.63,7.99-138.69,3.49-205.74-13.19-27.39-6.82-54.61-15.7-82.81-16.8-30.74-1.2-60.51,6.84-89.39,18.1V55.93h480.98Z"/>
        <path class="cls-2" d="M509.53,263.94c-47.11,0-94.02-5.75-140.13-17.22-5.72-1.42-11.51-2.96-17.11-4.44-21.09-5.59-42.89-11.36-64.69-12.21-25.94-1.01-53.7,4.63-87.38,17.76-1.54.6-3.27.4-4.64-.53s-2.18-2.48-2.18-4.13V55.93c0-2.76,2.24-5,5-5h480.98c2.76,0,5,2.24,5,5v188.1c0,2.74-2.2,4.96-4.94,5-23.67.31-48.39,3.72-72.29,7.03-9.95,1.38-20.24,2.8-30.23,3.96-22.46,2.62-44.95,3.92-67.39,3.92ZM281.67,219.94c2.12,0,4.22.04,6.32.12,22.9.89,45.25,6.81,66.86,12.54,5.56,1.47,11.32,3,16.96,4.4,66.9,16.64,135.52,21.04,203.95,13.07,9.88-1.15,20.12-2.56,30.02-3.93,22.57-3.12,45.86-6.34,68.6-7.01V60.93H203.41v174.99c29.37-10.83,54.55-15.97,78.26-15.97Z"/>
      </g>
      <g>
        <path class="cls-7" d="M679.39,244.03v77.7H198.41v-78.57c28.88-11.26,58.65-19.3,89.39-18.1,28.2,1.1,55.42,9.98,82.81,16.8,67.05,16.68,137.11,21.18,205.74,13.19,33.78-3.93,69.07-10.58,103.04-11.02Z"/>
        <path class="cls-8" d="M679.39,326.73H198.41c-2.76,0-5-2.24-5-5v-78.57c0-2.06,1.26-3.91,3.18-4.66,35-13.65,64.03-19.5,91.4-18.44,22.9.89,45.25,6.81,66.86,12.54,5.56,1.47,11.32,3,16.96,4.4,66.9,16.64,135.52,21.04,203.95,13.07,9.88-1.15,20.12-2.56,30.02-3.93,24.21-3.35,49.24-6.81,73.54-7.12,1.36-.02,2.63.5,3.58,1.44.95.94,1.49,2.22,1.49,3.56v77.7c0,2.76-2.24,5-5,5ZM203.41,316.73h470.98v-67.59c-22.12.68-45.02,3.85-67.23,6.92-9.95,1.38-20.24,2.8-30.23,3.96-69.63,8.11-139.45,3.63-207.53-13.3-5.72-1.42-11.51-2.96-17.11-4.44-21.09-5.59-42.89-11.36-64.69-12.21-25.12-.98-51.94,4.28-84.19,16.54v70.14Z"/>
      </g>
      <g>
        <rect class="cls-6" x="5" y="606.8" width="867.8" height="73.78"/>
        <path class="cls-6" d="M872.8,685.58H5C2.24,685.58,0,683.34,0,680.58v-73.78c0-2.76,2.24-5,5-5h867.8c2.76,0,5,2.24,5,5v73.78c0,2.76-2.24,5-5,5ZM10,675.58h857.8v-63.78H10v63.78Z"/>
      </g>
      <rect class="cls-4" x="116.6" y="148.24" width="23.22" height="23.22"/>
      <rect class="cls-4" x="139.82" y="171.46" width="23.22" height="23.22"/>
      <rect class="cls-4" x="716.22" y="148.24" width="23.22" height="23.22"/>
      <rect class="cls-4" x="739.44" y="171.46" width="23.22" height="23.22"/>
      <rect class="cls-4" x="727.83" y="268.4" width="23.22" height="23.22"/>
      <polygon class="cls-4" points="766.02 444.88 742.79 444.88 736.09 421.66 759.31 421.66 766.02 444.88"/>
      <polygon class="cls-4" points="803.81 557.8 780.59 557.8 773.89 534.58 797.11 534.58 803.81 557.8"/>
      <polygon class="cls-4" points="92.03 498.63 115.25 498.63 121.96 475.41 98.74 475.41 92.03 498.63"/>
      <rect class="cls-6" x="263.73" y="148.24" width="23.22" height="23.22"/>
      <rect class="cls-6" x="286.95" y="125.02" width="23.22" height="23.22"/>
      <rect class="cls-6" x="455.65" y="171.46" width="23.22" height="23.22"/>
      <rect class="cls-6" x="547.37" y="116.85" width="23.22" height="23.22"/>
      <rect class="cls-6" x="570.59" y="136.63" width="23.22" height="23.22"/>
      <rect class="cls-6" x="263.73" y="101.79" width="23.22" height="23.22"/>
      <rect class="cls-3" x="203.46" y="60.98" width="23.22" height="23.22"/>
      <rect class="cls-3" x="226.68" y="84.2" width="23.22" height="23.22"/>
      <rect class="cls-3" x="627.73" y="269.97" width="23.22" height="23.22"/>
      <rect class="cls-3" x="650.95" y="60.98" width="23.22" height="23.22"/>
      <rect class="cls-3" x="203.46" y="433.27" width="23.22" height="23.22"/>
      <rect class="cls-3" x="650.95" y="293.19" width="23.22" height="23.22"/>
      <path class="cls-6" d="M108.8,523.29h-19.61c-2.76,0-5-2.24-5-5s2.24-5,5-5h19.61c2.76,0,5,2.24,5,5s-2.24,5-5,5Z"/>
      <path class="cls-6" d="M104.16,540.9h-19.61c-2.76,0-5-2.24-5-5s2.24-5,5-5h19.61c2.76,0,5,2.24,5,5s-2.24,5-5,5Z"/>
      <path class="cls-6" d="M99.51,558.51h-19.61c-2.76,0-5-2.24-5-5s2.24-5,5-5h19.61c2.76,0,5,2.24,5,5s-2.24,5-5,5Z"/>
      <path class="cls-6" d="M94.86,576.12h-19.61c-2.76,0-5-2.24-5-5s2.24-5,5-5h19.61c2.76,0,5,2.24,5,5s-2.24,5-5,5Z"/>
    </g>
  </g>
</svg>