<?xml version="1.0" encoding="UTF-8"?>
<svg id="Layer_2" data-name="Layer 2" xmlns="http://www.w3.org/2000/svg" viewBox="0 0 727.96 206.04">
  <defs>
    <style>
      .cls-1 {
        fill: #03deca;
      }

      .cls-2 {
        fill: #1f1515;
      }

      .cls-3 {
        fill: #044c58;
      }

      .cls-4 {
        fill: #ff4d56;
      }

      .cls-5 {
        fill: #e20000;
      }
    </style>
  </defs>
  <g id="Graphics">
    <g id="Love">
      <g>
        <path class="cls-1" d="M624.94,5H103.02c-27.06,0-51.57,10.97-69.31,28.71C15.97,51.45,5,75.96,5,103.02c0,54.14,43.89,98.02,98.02,98.02h521.92c27.07,0,51.58-10.97,69.31-28.71,17.74-17.73,28.71-42.24,28.71-69.31,0-54.13-43.88-98.02-98.02-98.02ZM184.75,101.92l-.02.03c-1.1,1.42-2.32,2.73-3.65,3.93-2.66,2.4-5.34,4.78-7.91,7.27l-40.98,39.71-41.01-39.73c-2.56-2.49-5.23-4.86-7.88-7.25-1.32-1.2-2.54-2.51-3.64-3.92l-.04-.04h.01c-4.22-5.45-6.63-12.38-6.29-19.89.7-15.44,13.2-28.03,28.64-28.81,13.98-.7,26,8.08,30.21,20.48,4.21-12.4,16.23-21.18,30.21-20.48,15.44.78,27.94,13.37,28.64,28.81.34,7.51-2.07,14.44-6.29,19.89ZM342.49,101.92l-.02.03c-1.1,1.42-2.32,2.73-3.65,3.93-2.66,2.4-5.34,4.78-7.91,7.27l-40.98,39.71-41.01-39.73c-2.56-2.49-5.23-4.86-7.88-7.25-1.33-1.2-2.54-2.51-3.64-3.92l-.04-.04h.01c-4.22-5.45-6.63-12.38-6.29-19.89.7-15.44,13.2-28.03,28.64-28.81,13.98-.7,26,8.08,30.21,20.48,4.21-12.4,16.23-21.18,30.21-20.48,15.43.78,27.94,13.37,28.64,28.81.34,7.51-2.07,14.44-6.29,19.89ZM500.23,101.92l-.02.03c-1.1,1.42-2.33,2.73-3.65,3.93-2.66,2.4-5.34,4.78-7.92,7.27l-40.97,39.71-41.01-39.73c-2.56-2.49-5.23-4.86-7.88-7.25-1.33-1.2-2.54-2.51-3.64-3.92l-.04-.04h0c-4.22-5.45-6.63-12.38-6.29-19.89.7-15.44,13.2-28.03,28.64-28.81,13.97-.7,26,8.08,30.21,20.48,4.21-12.4,16.23-21.18,30.2-20.48,15.44.78,27.95,13.37,28.65,28.81.34,7.51-2.07,14.44-6.29,19.89ZM657.97,101.92l-.03.03c-1.1,1.42-2.32,2.73-3.65,3.93-2.65,2.4-5.33,4.78-7.91,7.27l-40.97,39.71-41.01-39.73c-2.56-2.49-5.24-4.86-7.89-7.25-1.32-1.2-2.54-2.51-3.63-3.92l-.04-.04h.01c-4.23-5.45-6.63-12.38-6.29-19.89.7-15.44,13.2-28.03,28.64-28.81,13.97-.7,26,8.08,30.21,20.48,4.21-12.4,16.23-21.18,30.2-20.48,15.44.78,27.95,13.37,28.64,28.81.34,7.51-2.06,14.44-6.29,19.89h.01Z"/>
        <path class="cls-3" d="M624.94,206.04H103.02C46.21,206.04,0,159.83,0,103.02c0-27.52,10.72-53.39,30.17-72.85C49.63,10.72,75.5,0,103.02,0h521.92c56.81,0,103.02,46.21,103.02,103.02,0,27.53-10.72,53.4-30.18,72.85-19.45,19.46-45.32,30.17-72.84,30.17ZM103.02,10c-24.85,0-48.2,9.68-65.77,27.25S10,78.17,10,103.02c0,51.29,41.73,93.02,93.02,93.02h521.92c24.86,0,48.21-9.68,65.77-27.24,17.57-17.56,27.25-40.92,27.25-65.78,0-51.29-41.73-93.02-93.02-93.02H103.02ZM447.67,157.86c-1.25,0-2.51-.47-3.48-1.41l-41.01-39.73c-2.12-2.06-4.39-4.1-6.58-6.07l-1.17-1.06c-1.51-1.36-2.92-2.88-4.2-4.52-.03-.04-.07-.09-.1-.13-5.08-6.59-7.68-14.8-7.3-23.14.81-17.92,15.48-32.67,33.38-33.58,12.16-.6,23.59,5.15,30.46,14.68,6.87-9.53,18.29-15.29,30.45-14.68,17.91.9,32.58,15.65,33.39,33.58.38,8.31-2.2,16.49-7.25,23.07-.03.05-.07.09-.1.14-1.24,1.6-2.67,3.14-4.24,4.57l-1.27,1.15c-2.18,1.96-4.43,3.98-6.54,6.02l-40.96,39.7c-.97.94-2.23,1.41-3.48,1.41ZM399.1,98.91c.93,1.18,1.94,2.28,3.03,3.26l1.16,1.05c2.26,2.03,4.6,4.14,6.85,6.33l37.52,36.35,37.49-36.34c2.25-2.17,4.56-4.25,6.8-6.27l1.25-1.13c1.1-1,2.11-2.08,2.98-3.2.03-.04.06-.08.08-.11,3.66-4.72,5.52-10.62,5.25-16.6-.58-12.83-11.08-23.39-23.91-24.04-11.24-.56-21.61,6.47-25.21,17.09-.69,2.03-2.59,3.39-4.73,3.39s-4.05-1.36-4.73-3.39c-3.61-10.63-13.98-17.64-25.23-17.09-12.82.65-23.31,11.21-23.9,24.04-.27,5.98,1.59,11.88,5.25,16.6.01.02.03.03.04.05ZM500.21,101.95h.01-.01ZM605.41,157.86c-1.25,0-2.51-.47-3.48-1.41l-41.01-39.73c-2.06-2.01-4.27-3.99-6.4-5.91l-1.36-1.22c-1.55-1.41-2.96-2.93-4.2-4.53-.03-.04-.07-.09-.1-.13-5.08-6.57-7.67-14.78-7.29-23.13.81-17.92,15.48-32.67,33.38-33.58,12.16-.6,23.59,5.15,30.46,14.68,6.87-9.53,18.29-15.29,30.45-14.68,17.92.9,32.58,15.66,33.38,33.58.37,8.26-2.16,16.39-7.14,22.93-.1.15-.21.3-.33.44-1.24,1.58-2.63,3.06-4.13,4.42l-1.51,1.37c-2.09,1.88-4.25,3.83-6.27,5.79l-40.96,39.7c-.97.94-2.23,1.41-3.48,1.41ZM556.86,98.94c.89,1.14,1.9,2.23,3.01,3.24l1.33,1.2c2.21,1.98,4.49,4.03,6.68,6.17l37.52,36.35,37.49-36.34c2.16-2.08,4.38-4.09,6.53-6.02l1.51-1.36c1.09-.98,2.09-2.06,2.98-3.19.03-.04.06-.09.1-.13,3.65-4.71,5.52-10.6,5.24-16.6-.57-12.83-11.07-23.39-23.9-24.04-11.25-.56-21.6,6.47-25.21,17.09-.69,2.03-2.59,3.39-4.73,3.39s-4.05-1.36-4.73-3.39c-3.61-10.63-13.97-17.64-25.23-17.09-12.82.65-23.31,11.21-23.9,24.04-.27,6,1.59,11.89,5.24,16.6.02.03.04.05.06.08ZM289.93,157.86c-1.25,0-2.51-.47-3.48-1.41l-41.01-39.73c-2.12-2.06-4.38-4.09-6.57-6.06l-1.18-1.07c-1.51-1.36-2.92-2.88-4.21-4.52-.04-.05-.07-.1-.11-.14-5.08-6.58-7.67-14.79-7.29-23.12.81-17.92,15.48-32.67,33.38-33.58,12.15-.6,23.59,5.15,30.46,14.68,6.87-9.53,18.3-15.29,30.46-14.68,17.91.9,32.57,15.65,33.38,33.58.38,8.3-2.19,16.49-7.24,23.06-.04.05-.07.1-.11.15-1.27,1.64-2.7,3.18-4.25,4.58l-1.23,1.11c-2.18,1.96-4.44,3.99-6.55,6.04l-40.98,39.71c-.97.94-2.22,1.41-3.48,1.41ZM241.38,98.93c.92,1.18,1.94,2.27,3.01,3.24l1.18,1.06c2.26,2.03,4.59,4.13,6.84,6.32l37.52,36.35,37.5-36.34c2.24-2.17,4.57-4.26,6.81-6.29l1.23-1.1c1.09-.98,2.09-2.05,2.98-3.19.03-.04.06-.08.09-.12,3.66-4.72,5.52-10.62,5.25-16.6-.58-12.83-11.08-23.39-23.9-24.04-11.23-.56-21.61,6.47-25.22,17.09-.69,2.03-2.59,3.39-4.73,3.39s-4.05-1.36-4.73-3.39c-3.61-10.63-13.98-17.65-25.23-17.09-12.82.65-23.31,11.21-23.9,24.04-.27,5.99,1.59,11.88,5.25,16.6.02.02.04.05.05.07ZM342.47,101.95h0,0ZM132.19,157.86c-1.25,0-2.51-.47-3.48-1.41l-41.01-39.73c-2.12-2.06-4.39-4.1-6.58-6.07l-1.17-1.06c-1.54-1.4-2.95-2.92-4.21-4.52-.03-.04-.07-.09-.1-.13-5.09-6.59-7.68-14.8-7.3-23.14.81-17.92,15.48-32.67,33.38-33.58,12.15-.6,23.59,5.15,30.46,14.68,6.87-9.53,18.3-15.29,30.46-14.68,17.91.9,32.57,15.65,33.38,33.58.38,8.31-2.2,16.5-7.25,23.07-.03.05-.07.09-.1.14-1.27,1.64-2.7,3.18-4.25,4.58l-1.22,1.1c-2.19,1.97-4.45,4-6.56,6.05l-40.98,39.71c-.97.94-2.22,1.41-3.48,1.41ZM83.62,98.91c.91,1.16,1.93,2.26,3.04,3.27l1.15,1.03c2.26,2.03,4.6,4.14,6.85,6.33l37.52,36.35,37.5-36.34c2.24-2.17,4.57-4.27,6.83-6.3l1.21-1.09c1.09-.98,2.09-2.06,2.98-3.2.03-.04.06-.08.08-.11,3.66-4.72,5.52-10.62,5.25-16.6-.58-12.83-11.08-23.39-23.9-24.04-11.23-.56-21.62,6.47-25.22,17.09-.69,2.03-2.59,3.39-4.73,3.39s-4.05-1.36-4.73-3.39c-3.61-10.63-13.97-17.65-25.23-17.09-12.82.65-23.31,11.21-23.9,24.04-.27,5.98,1.59,11.88,5.25,16.6.01.02.03.03.04.05ZM184.73,101.95h0,0Z"/>
      </g>
      <g>
        <path class="cls-4" d="M184.75,101.92l-.02.03c-1.1,1.42-2.32,2.73-3.65,3.93-2.66,2.4-5.34,4.78-7.91,7.27l-40.98,39.71-41.01-39.73c-2.56-2.49-5.23-4.86-7.88-7.25-1.32-1.2-2.54-2.51-3.64-3.92l-.04-.04h.01c-4.22-5.45-6.63-12.38-6.29-19.89.7-15.44,13.2-28.03,28.64-28.81,13.98-.7,26,8.08,30.21,20.48,4.21-12.4,16.23-21.18,30.21-20.48,15.44.78,27.94,13.37,28.64,28.81.34,7.51-2.07,14.44-6.29,19.89Z"/>
        <path class="cls-5" d="M132.19,157.86c-1.25,0-2.51-.47-3.48-1.41l-41.01-39.73c-2.12-2.06-4.39-4.1-6.58-6.07l-1.17-1.06c-1.54-1.4-2.95-2.92-4.2-4.52-.03-.04-.07-.08-.1-.13-5.09-6.59-7.68-14.8-7.3-23.14.81-17.92,15.48-32.67,33.38-33.58,12.15-.6,23.59,5.15,30.46,14.68,6.87-9.53,18.3-15.29,30.46-14.68,17.91.9,32.57,15.65,33.39,33.58.38,8.31-2.2,16.5-7.25,23.07-.03.05-.07.09-.1.14-1.27,1.64-2.7,3.18-4.25,4.58l-1.22,1.1c-2.19,1.97-4.45,4-6.56,6.05l-40.98,39.71c-.97.94-2.22,1.41-3.48,1.41ZM83.63,98.91c.91,1.16,1.93,2.26,3.04,3.27l1.15,1.03c2.26,2.03,4.6,4.14,6.85,6.33l37.52,36.35,37.5-36.34c2.24-2.17,4.57-4.27,6.83-6.3l1.21-1.09c1.09-.98,2.09-2.06,2.98-3.2.03-.04.06-.08.08-.11,3.66-4.72,5.52-10.62,5.25-16.6-.58-12.83-11.08-23.39-23.9-24.04-11.23-.56-21.62,6.47-25.22,17.09-.69,2.03-2.59,3.39-4.73,3.39s-4.05-1.36-4.73-3.39c-3.61-10.63-13.99-17.65-25.23-17.09-12.82.65-23.31,11.21-23.9,24.04-.27,5.99,1.59,11.88,5.25,16.6.01.02.03.04.04.06Z"/>
      </g>
      <g>
        <path class="cls-4" d="M342.49,101.92l-.02.03c-1.1,1.42-2.32,2.73-3.65,3.93-2.66,2.4-5.34,4.78-7.91,7.27l-40.98,39.71-41.01-39.73c-2.56-2.49-5.23-4.86-7.88-7.25-1.33-1.2-2.54-2.51-3.64-3.92l-.04-.04h.01c-4.22-5.45-6.63-12.38-6.29-19.89.7-15.44,13.2-28.03,28.64-28.81,13.98-.7,26,8.08,30.21,20.48,4.21-12.4,16.23-21.18,30.21-20.48,15.43.78,27.94,13.37,28.64,28.81.34,7.51-2.07,14.44-6.29,19.89Z"/>
        <path class="cls-5" d="M289.93,157.86c-1.25,0-2.51-.47-3.48-1.41l-41.01-39.73c-2.12-2.06-4.38-4.09-6.57-6.06l-1.18-1.07c-1.51-1.36-2.92-2.88-4.2-4.52-.04-.05-.08-.1-.11-.15-5.08-6.58-7.67-14.79-7.29-23.12.81-17.92,15.48-32.67,33.38-33.58,12.15-.6,23.59,5.15,30.46,14.68,6.87-9.53,18.3-15.29,30.46-14.68,17.91.9,32.57,15.65,33.38,33.58.38,8.3-2.19,16.49-7.24,23.06-.04.05-.07.1-.11.15-1.27,1.64-2.7,3.18-4.25,4.58l-1.23,1.11c-2.18,1.96-4.44,3.99-6.55,6.04l-40.98,39.71c-.97.94-2.22,1.41-3.48,1.41ZM241.38,98.93c.92,1.18,1.94,2.27,3.01,3.24l1.17,1.06c2.26,2.03,4.59,4.13,6.84,6.32l37.52,36.35,37.5-36.34c2.24-2.17,4.57-4.26,6.81-6.29l1.23-1.1c1.09-.98,2.09-2.05,2.98-3.19.03-.04.06-.08.09-.12,3.66-4.72,5.52-10.62,5.25-16.6-.58-12.83-11.08-23.39-23.9-24.04-11.24-.56-21.61,6.47-25.22,17.09-.69,2.03-2.59,3.39-4.73,3.39s-4.05-1.36-4.73-3.39c-3.61-10.63-13.98-17.65-25.23-17.09-12.82.65-23.31,11.21-23.9,24.04-.27,5.99,1.59,11.88,5.25,16.6.02.02.04.05.05.07Z"/>
      </g>
      <g>
        <path class="cls-4" d="M500.23,101.92l-.02.03c-1.1,1.42-2.33,2.73-3.65,3.93-2.66,2.4-5.34,4.78-7.92,7.27l-40.97,39.71-41.01-39.73c-2.56-2.49-5.23-4.86-7.88-7.25-1.33-1.2-2.54-2.51-3.64-3.92l-.04-.04h0c-4.22-5.45-6.63-12.38-6.29-19.89.7-15.44,13.2-28.03,28.64-28.81,13.97-.7,26,8.08,30.21,20.48,4.21-12.4,16.23-21.18,30.2-20.48,15.44.78,27.95,13.37,28.65,28.81.34,7.51-2.07,14.44-6.29,19.89Z"/>
        <path class="cls-5" d="M447.67,157.86c-1.25,0-2.51-.47-3.48-1.41l-41.01-39.73c-2.12-2.06-4.39-4.1-6.58-6.07l-1.17-1.06c-1.51-1.36-2.92-2.88-4.21-4.52-.03-.04-.07-.08-.1-.13-5.09-6.59-7.68-14.8-7.3-23.14.81-17.92,15.48-32.67,33.38-33.58,12.16-.61,23.59,5.15,30.46,14.68,6.87-9.53,18.29-15.29,30.45-14.68,17.91.9,32.58,15.65,33.39,33.58.38,8.31-2.2,16.5-7.25,23.07-.03.05-.07.09-.1.14-1.24,1.6-2.67,3.14-4.24,4.57l-1.27,1.15c-2.18,1.96-4.43,3.98-6.54,6.02l-40.96,39.7c-.97.94-2.23,1.41-3.48,1.41ZM399.11,98.91c.93,1.18,1.94,2.28,3.02,3.25l1.16,1.05c2.26,2.03,4.6,4.14,6.85,6.33l37.52,36.35,37.49-36.34c2.25-2.17,4.56-4.25,6.8-6.27l1.25-1.13c1.1-1,2.11-2.08,2.98-3.2.03-.04.06-.08.08-.11,3.66-4.72,5.52-10.62,5.25-16.6-.58-12.83-11.08-23.39-23.91-24.04-11.24-.56-21.61,6.47-25.21,17.09-.69,2.03-2.59,3.39-4.73,3.39s-4.05-1.36-4.73-3.39c-3.61-10.63-13.99-17.64-25.23-17.09-12.82.65-23.31,11.21-23.9,24.04-.27,5.99,1.59,11.88,5.25,16.6.01.02.03.04.04.06Z"/>
      </g>
      <g>
        <path class="cls-2" d="M657.96,101.92h.01l-.03.03c-1.1,1.42-2.32,2.73-3.65,3.93-2.65,2.4-5.33,4.78-7.91,7.27l-40.97,39.71v-79.16c4.21-12.4,16.23-21.18,30.2-20.48,15.44.78,27.95,13.37,28.64,28.81.34,7.51-2.06,14.44-6.29,19.89Z"/>
        <path class="cls-2" d="M605.41,157.86c-.66,0-1.32-.13-1.95-.4-1.85-.78-3.05-2.6-3.05-4.6v-79.16c0-.55.09-1.09.27-1.61,5.04-14.84,19.49-24.64,35.18-23.87,17.92.9,32.58,15.66,33.38,33.58.37,8.26-2.16,16.39-7.14,22.93-.1.15-.22.3-.34.44-1.24,1.58-2.63,3.06-4.13,4.42l-1.51,1.37c-2.09,1.88-4.25,3.83-6.27,5.79l-40.96,39.7c-.95.92-2.21,1.41-3.48,1.41ZM610.41,74.56v66.49l32.49-31.49c2.16-2.08,4.38-4.09,6.53-6.02l1.51-1.36c1.09-.98,2.09-2.06,2.98-3.19.03-.04.06-.09.1-.13,3.65-4.71,5.52-10.6,5.24-16.6-.57-12.83-11.07-23.39-23.9-24.04-10.98-.56-21.12,6.14-24.95,16.35Z"/>
      </g>
      <g>
        <path class="cls-4" d="M605.41,73.7v79.16l-41.01-39.73c-2.56-2.49-5.24-4.86-7.89-7.25-1.32-1.2-2.54-2.51-3.63-3.92l-.04-.04h.01c-4.23-5.45-6.63-12.38-6.29-19.89.7-15.44,13.2-28.03,28.64-28.81,13.97-.7,26,8.08,30.21,20.48Z"/>
        <path class="cls-5" d="M605.41,157.86c-1.27,0-2.53-.49-3.48-1.41l-41.01-39.73c-2.06-2.01-4.27-3.99-6.4-5.91l-1.36-1.22c-1.55-1.41-2.96-2.93-4.21-4.53-.03-.04-.07-.09-.1-.13-5.08-6.57-7.67-14.78-7.29-23.13.81-17.92,15.48-32.67,33.38-33.58,15.68-.79,30.16,9.03,35.2,23.87.18.52.27,1.06.27,1.61v79.16c0,2.01-1.2,3.82-3.05,4.6-.63.27-1.29.4-1.95.4ZM556.86,98.94c.89,1.14,1.9,2.23,3.01,3.24l1.33,1.2c2.21,1.98,4.49,4.03,6.68,6.17l32.52,31.51v-66.49c-3.83-10.21-13.99-16.9-24.96-16.35-12.82.65-23.31,11.21-23.9,24.04-.27,6,1.59,11.89,5.24,16.6.02.03.04.06.06.08Z"/>
      </g>
    </g>
  </g>
</svg>