<?xml version="1.0" encoding="UTF-8"?>
<svg id="Layer_2" data-name="Layer 2" xmlns="http://www.w3.org/2000/svg" viewBox="0 0 621.62 665.15">
  <defs>
    <style>
      .cls-1 {
        fill: #ef8800;
      }

      .cls-2 {
        fill: #fff;
      }

      .cls-3 {
        fill: #ff4d56;
      }

      .cls-4 {
        fill: #e20000;
      }

      .cls-5 {
        fill: #ffe27e;
      }
    </style>
  </defs>
  <g id="Graphics">
    <g id="Mushroom">
      <g>
        <path class="cls-2" d="M616.61,308.11s.01.06,0,.08c-.65,38.85-88.19,71.77-209.4,83.38l-10.52-80.76c0-13.01-38.45-23.56-85.88-23.56s-85.89,10.55-85.89,23.56l-10.52,80.76c-121.24-11.62-208.8-44.55-209.39-83.42.01-.51.01-1.01.02-1.52t0-.02c1.49-34.05,69.72-63.45,168.66-77.81,41.24-5.98,87.81-9.35,137.11-9.35,19.28,0,38.14.51,56.42,1.5,140.64,7.58,247.42,42.95,249.37,85.61v.05c.01.5.01,1,.02,1.5Z"/>
        <path class="cls-4" d="M214.4,396.57c-.16,0-.32,0-.48-.02C84.6,384.15.64,349.48.01,308.23c0-.06,0-.11,0-.17l.02-1.22c0-.09,0-.18,0-.28,0-.15.01-.3.03-.45.98-18.62,18.04-35.56,50.71-50.34,30.17-13.65,72.43-24.69,122.22-31.91,43.02-6.24,89.4-9.4,137.83-9.4,19.15,0,38.23.51,56.69,1.51,68.97,3.72,132.2,14.34,178.03,29.91,48.71,16.55,75.01,37.45,76.06,60.47,0,.08,0,.15,0,.23l.02,1.45h0c0,.09,0,.17,0,.26h0c-.35,21.03-22.02,40.56-62.67,56.48-38.27,14.99-90.57,25.98-151.26,31.8-2.66.26-5.09-1.66-5.43-4.33l-10.52-80.76c-.03-.21-.04-.43-.04-.65,0-6.3-28.55-18.56-80.88-18.56s-80.89,12.26-80.89,18.56c0,.22-.01.43-.04.65l-10.52,80.76c-.33,2.51-2.47,4.35-4.95,4.35ZM401.68,310.44l9.86,75.67c57.72-5.83,107.34-16.42,143.75-30.68,36.02-14.11,56.01-30.9,56.31-47.3l-.02-1.43h0c-.92-18.27-25.51-36.5-69.29-51.37-44.99-15.28-107.27-25.72-175.35-29.39-18.29-.99-37.18-1.49-56.15-1.49-47.95,0-93.84,3.13-136.39,9.3-48.87,7.09-90.21,17.86-119.53,31.13-28.66,12.97-44.17,27.45-44.85,41.88l-.02,1.39c.3,16.39,20.28,33.18,56.27,47.28,36.41,14.27,86.04,24.86,143.78,30.7l9.86-75.67c.26-8.84,9.96-15.94,28.83-21.12,16.64-4.57,38.68-7.08,62.05-7.08s45.41,2.51,62.05,7.08c18.87,5.18,28.57,12.28,28.83,21.12Z"/>
      </g>
      <path class="cls-4" d="M310.81,292.25c-2.76,0-5-2.24-5-5v-67.8c0-2.76,2.23-5,4.99-5,2.76,0,5,2.24,5,5v67.8c0,2.76-2.23,5-4.99,5Z"/>
      <path class="cls-4" d="M504.29,331.88c-15.14,0-28.89-.91-40.71-2.19-40.92-4.42-67.46-13.77-68.57-14.16-2.6-.93-3.96-3.79-3.03-6.39.93-2.6,3.79-3.96,6.39-3.03.26.09,26.76,9.4,66.59,13.67,36.04,3.86,90.57,4.27,147.15-15.38.78-1.57,2.35-2.68,4.23-2.78,2.79-.17,5.11,1.98,5.25,4.74.02.47.04.93.04,1.4,0,.27,0,.54-.03.81-.17,1.94-1.46,3.6-3.29,4.26-40.86,14.65-80.79,19.06-114.01,19.06Z"/>
      <path class="cls-4" d="M370.32,297.35c-4.15,0-6.6-.1-6.92-.12-2.76-.13-4.89-2.46-4.77-5.22.12-2.76,2.45-4.9,5.22-4.77,1.01.04,101.86,3.96,154.48-46.99,1.98-1.92,5.15-1.87,7.07.11,1.92,1.98,1.87,5.15-.11,7.07-29.25,28.32-71.78,40.35-102.31,45.45-23.15,3.87-42.74,4.47-52.66,4.47Z"/>
      <path class="cls-4" d="M336.78,293.35c-2.04,0-3.95-1.25-4.69-3.28-.95-2.59.37-5.46,2.96-6.42.67-.25,50.94-19.33,62.81-61.5.75-2.66,3.51-4.2,6.17-3.46,2.66.75,4.21,3.51,3.46,6.17-13.29,47.2-66.71,67.34-68.98,68.18-.57.21-1.15.31-1.73.31Z"/>
      <path class="cls-4" d="M471.9,386.89c-29.86,0-48.62-11.7-59.3-21.88-12.43-11.86-16.82-24.17-17-24.69-.91-2.61.46-5.46,3.07-6.37,2.6-.91,5.45.46,6.36,3.06h0c.62,1.74,15.87,42.65,72.48,39.73,2.77-.15,5.11,1.98,5.25,4.74.14,2.76-1.98,5.11-4.74,5.25-2.09.11-4.13.16-6.13.16Z"/>
      <path class="cls-4" d="M271.85,297.24c-.67,0-1.36-.14-2.01-.43-.84-.37-20.69-9.48-26.14-43.09-.44-2.73,1.41-5.29,4.13-5.74,2.73-.44,5.29,1.41,5.74,4.14,4.59,28.31,20.14,35.47,20.3,35.54,2.53,1.11,3.67,4.07,2.56,6.59-.82,1.87-2.66,2.98-4.58,2.98Z"/>
      <path class="cls-4" d="M157.17,326c-29.99,0-54.96-4.01-56.77-4.31-2.72-.45-4.57-3.02-4.12-5.74.45-2.72,3.01-4.58,5.74-4.12.75.12,75.97,12.18,121.05-5.67,2.57-1.02,5.47.24,6.49,2.81,1.02,2.57-.24,5.47-2.81,6.49-20.68,8.19-46.61,10.54-69.58,10.54Z"/>
      <path class="cls-4" d="M178.96,367.48c-5.25,0-8.87-.58-9.34-.65-2.72-.46-4.56-3.04-4.1-5.76.46-2.72,3.02-4.56,5.75-4.1,1.33.22,31.49,4.85,43.1-17.65,1.27-2.45,4.28-3.42,6.74-2.15,2.45,1.27,3.42,4.28,2.15,6.74-10.52,20.39-31.92,23.59-44.29,23.59Z"/>
      <path class="cls-4" d="M10,310.81H0c0-.91,0-1.81,0-2.71l10,.11c0,.87,0,1.73,0,2.61Z"/>
      <g>
        <path class="cls-3" d="M616.59,306.56c-1.95-42.66-108.73-78.03-249.37-85.61.19-2.53.29-5.09.29-7.67,0-53.86-43.67-97.52-97.53-97.52s-97.53,43.66-97.53,97.52c0,5.29.43,10.46,1.24,15.52C74.75,243.16,6.52,272.56,5.03,306.61c.41-30.64,5.32-60.2,14.12-88.03,5.09.82,10.31,1.24,15.64,1.24,53.86,0,97.53-43.66,97.53-97.53,0-18.08-4.93-35.02-13.5-49.53,22.53-18.2,47.7-33.26,74.85-44.52,17.71,18.17,42.46,29.46,69.85,29.46,36.74,0,68.74-20.32,85.37-50.35,26.44,3.28,51.83,9.94,75.73,19.54-17.07,17.56-27.58,41.54-27.58,67.97,0,53.86,43.66,97.52,97.52,97.52,32.06,0,60.5-15.46,78.28-39.33,27.11,44.93,42.99,97.39,43.75,153.51Z"/>
        <path class="cls-4" d="M5.03,311.61s-.1,0-.15,0c-2.73-.08-4.89-2.33-4.86-5.06.41-30.54,5.24-60.64,14.35-89.47.75-2.37,3.12-3.82,5.56-3.43,4.85.78,9.84,1.18,14.85,1.18,51.02,0,92.53-41.51,92.53-92.53,0-16.56-4.43-32.8-12.8-46.99-1.26-2.14-.77-4.87,1.16-6.43,23.12-18.68,48.72-33.9,76.08-45.25,1.89-.78,4.07-.34,5.5,1.13,17.57,18.02,41.1,27.95,66.27,27.95,33.64,0,64.68-18.31,81-47.77.99-1.79,2.98-2.79,4.99-2.54,26.43,3.28,52.33,9.96,76.98,19.86,1.55.62,2.68,1.97,3.03,3.6.35,1.63-.14,3.33-1.31,4.52-16.87,17.36-26.17,40.26-26.17,64.48,0,51.02,41.5,92.52,92.52,92.52,29.53,0,56.61-13.6,74.27-37.32.99-1.34,2.6-2.09,4.25-2.01,1.66.08,3.18.98,4.04,2.41,28.35,46.98,43.72,100.93,44.47,156.02.04,2.73-2.12,4.98-4.85,5.07-2.78.09-5.02-2.04-5.14-4.77-.84-18.29-25.44-36.56-69.29-51.45-44.99-15.28-107.27-25.72-175.35-29.39-1.34-.07-2.6-.68-3.49-1.69-.89-1.01-1.33-2.33-1.23-3.68.18-2.43.28-4.89.28-7.29,0-51.02-41.51-92.52-92.53-92.52s-92.53,41.5-92.53,92.52c0,4.9.4,9.85,1.18,14.73.21,1.32-.12,2.67-.91,3.75s-1.99,1.79-3.31,1.99c-48.87,7.09-90.21,17.86-119.53,31.13-28.71,12.99-44.22,27.5-44.85,41.95-.12,2.68-2.33,4.78-4.99,4.78ZM372.47,216.24c67.03,3.95,128.32,14.43,173.05,29.63,30.72,10.43,52.52,22.6,64.71,35.94-4.07-42.22-17.02-83.17-38.03-119.97-19.51,22.68-47.41,35.54-77.64,35.54-56.53,0-102.52-45.99-102.52-102.52,0-24.35,8.47-47.49,24-65.93-20.79-7.77-42.43-13.2-64.48-16.19-18.48,30.9-51.9,49.96-88.04,49.96-26.74,0-51.82-10.11-71-28.55-24.04,10.28-46.63,23.68-67.26,39.87,7.9,14.79,12.06,31.39,12.06,48.27,0,56.54-45.99,102.53-102.53,102.53-4.06,0-8.12-.24-12.12-.7-5.63,18.74-9.41,38.02-11.29,57.6,8.46-9.24,21.6-17.91,39.37-25.95,29.17-13.2,69.66-23.96,117.32-31.19-.42-3.76-.62-7.55-.62-11.3,0-56.53,45.99-102.52,102.53-102.52s102.53,45.99,102.53,102.52c0,.98-.01,1.97-.04,2.96Z"/>
      </g>
      <path class="cls-4" d="M621.62,310.81h-10c0-.86,0-1.71-.01-2.56l10-.12c.01.89.01,1.78.01,2.68Z"/>
      <g>
        <path class="cls-2" d="M367.51,213.28c0,2.58-.1,5.14-.29,7.67-18.28-.99-37.14-1.5-56.42-1.5-49.3,0-95.87,3.37-137.11,9.35-.81-5.06-1.24-10.23-1.24-15.52,0-53.86,43.67-97.52,97.53-97.52s97.53,43.66,97.53,97.52Z"/>
        <path class="cls-4" d="M173.68,233.8c-2.42,0-4.54-1.75-4.93-4.21-.86-5.4-1.3-10.89-1.3-16.31,0-56.53,45.99-102.52,102.53-102.52s102.53,45.99,102.53,102.52c0,2.66-.1,5.36-.3,8.05-.2,2.71-2.54,4.76-5.26,4.62-18.28-.99-37.18-1.49-56.15-1.49-47.95,0-93.84,3.13-136.39,9.3-.24.04-.49.05-.72.05ZM269.98,120.76c-51.02,0-92.53,41.5-92.53,92.52,0,3.27.18,6.57.53,9.86,41.61-5.77,86.26-8.69,132.82-8.69,17.42,0,34.79.42,51.68,1.25.02-.81.03-1.62.03-2.42,0-51.02-41.51-92.52-92.53-92.52Z"/>
      </g>
      <path class="cls-4" d="M.02,308.52c-.02-.25-.02-.52-.02-.77,0-.46.01-.93.04-1.38l9.99.53c-.01.28-.02.57-.02.86v.11l-9.98.66Z"/>
      <polygon class="cls-4" points="407.21 396.57 407.2 396.57 407.2 386.57 407.21 396.57"/>
      <g>
        <path class="cls-5" d="M310.81,660.15c-69.64,0-123.41-61.23-114.42-130.29l15.83-121.53,2.18-16.76.84-6.46,9.68-74.3c0-13.01,38.46-23.56,85.89-23.56s85.88,10.55,85.88,23.56l10.52,80.76,18.01,138.29c8.99,69.06-44.77,130.29-114.41,130.29Z"/>
        <path class="cls-1" d="M310.81,665.15c-34.63,0-67.6-14.92-90.45-40.94-22.86-26.02-33.4-60.65-28.93-94.99l28.49-218.77c.26-8.84,9.96-15.94,28.83-21.12,16.64-4.56,38.68-7.08,62.05-7.08s45.41,2.51,62.05,7.08c18.87,5.18,28.57,12.28,28.83,21.11l28.49,218.77c4.47,34.35-6.07,68.97-28.93,95-22.85,26.02-55.81,40.94-90.44,40.94ZM310.81,292.25c-52.34,0-80.89,12.26-80.89,18.56,0,.22-.01.43-.04.65l-28.53,219.05c-4.1,31.49,5.57,63.24,26.53,87.1,20.96,23.86,51.18,37.54,82.94,37.54s61.98-13.68,82.93-37.54c20.96-23.86,30.62-55.61,26.53-87.11l-28.53-219.05c-.03-.21-.04-.43-.04-.65,0-6.3-28.55-18.56-80.88-18.56Z"/>
      </g>
      <g>
        <path class="cls-2" d="M132.32,122.29c0,53.87-43.67,97.53-97.53,97.53-5.33,0-10.55-.42-15.64-1.24,14.96-47.36,41.14-89.74,75.42-124.01,7.68-7.69,15.78-14.97,24.25-21.81,8.57,14.51,13.5,31.45,13.5,49.53Z"/>
        <path class="cls-4" d="M34.79,224.82c-5.53,0-11.06-.44-16.44-1.3-1.43-.23-2.7-1.08-3.46-2.31-.76-1.24-.95-2.74-.51-4.13,14.92-47.24,41.43-90.83,76.65-126.04,7.75-7.76,16.04-15.22,24.64-22.16,1.13-.91,2.6-1.29,4.03-1.03,1.43.26,2.68,1.13,3.42,2.38,9.29,15.72,14.2,33.73,14.2,52.07,0,56.54-45.99,102.53-102.53,102.53ZM25.78,214.39c2.98.29,5.99.43,9.01.43,51.02,0,92.53-41.51,92.53-92.53,0-14.58-3.44-28.93-9.98-41.83-6.68,5.61-13.13,11.53-19.23,17.65-32.67,32.67-57.6,72.77-72.33,116.29Z"/>
      </g>
      <g>
        <path class="cls-3" d="M5,310.81c0-.89,0-1.77,0-2.66,0-.13,0-.27,0-.4,0-.37,0-.75.03-1.12l168.66-77.82h0s233.51,162.76,233.51,162.76h.01l209.41-80.76c0-.88,0-1.75-.01-2.62l-611.61,2.62Z"/>
        <polygon class="cls-4" points="168.69 228.81 168.69 228.8 178.69 228.8 168.69 228.81"/>
      </g>
      <g>
        <path class="cls-2" d="M348.89,7.35c-16.63,30.03-48.63,50.35-85.37,50.35-27.39,0-52.14-11.29-69.85-29.46,36.07-14.98,75.64-23.24,117.13-23.24,12.9,0,25.61.8,38.09,2.35Z"/>
        <path class="cls-4" d="M263.52,62.7c-27.89,0-53.96-11-73.43-30.97-1.16-1.19-1.65-2.87-1.32-4.49.33-1.62,1.45-2.98,2.98-3.61C229.49,7.95,269.55,0,310.8,0c12.92,0,25.95.8,38.71,2.39,1.65.2,3.09,1.21,3.84,2.69s.72,3.24-.08,4.69c-18.08,32.65-52.47,52.93-89.74,52.93ZM202.77,29.98c16.83,14.7,38.13,22.72,60.75,22.72,31.08,0,59.94-15.63,77.02-41.25-9.86-.97-19.83-1.45-29.74-1.45-37.32,0-73.62,6.72-108.03,19.98Z"/>
      </g>
      <g>
        <path class="cls-2" d="M572.84,153.04h0c-17.78,23.88-46.22,39.34-78.28,39.34-53.86,0-97.52-43.66-97.52-97.52,0-26.43,10.51-50.41,27.58-67.97,62.05,24.88,114.04,69.53,148.22,126.15Z"/>
        <path class="cls-4" d="M494.56,197.38c-56.53,0-102.52-45.99-102.52-102.52,0-26.84,10.3-52.22,29-71.46,1.41-1.45,3.57-1.91,5.45-1.16,62.32,24.99,115.82,70.52,150.64,128.21.47.78.72,1.67.72,2.58h0c0,1.09-.35,2.13-.99,3-19.57,26.27-49.57,41.34-82.29,41.34ZM425.91,32.82c-15.42,17.04-23.87,38.94-23.87,62.04,0,51.02,41.5,92.52,92.52,92.52,28.42,0,54.55-12.59,72.22-34.66-33.14-53.5-82.95-95.89-140.87-119.9Z"/>
      </g>
      <rect class="cls-2" x="193.67" y="59.33" width="23.22" height="23.22"/>
      <rect class="cls-2" x="170.45" y="82.55" width="23.22" height="23.22"/>
      <rect class="cls-1" x="248.63" y="292.24" width="23.22" height="23.22"/>
      <rect class="cls-1" x="225.41" y="315.46" width="23.22" height="23.22"/>
      <rect class="cls-1" x="271.85" y="315.46" width="23.22" height="23.22"/>
      <rect class="cls-1" x="295.07" y="292.24" width="23.22" height="23.22"/>
      <rect class="cls-1" x="318.29" y="315.46" width="23.22" height="23.22"/>
      <rect class="cls-1" x="225.41" y="361.9" width="23.22" height="23.22"/>
      <polygon class="cls-1" points="225.41 385.11 225.41 408.33 212.22 408.33 214.4 391.57 215.24 385.11 225.41 385.11"/>
      <rect class="cls-1" x="318.29" y="361.9" width="23.22" height="23.22"/>
      <rect class="cls-1" x="295.07" y="385.12" width="23.22" height="23.22"/>
    </g>
  </g>
</svg>