<?xml version="1.0" encoding="UTF-8"?>
<svg id="Layer_2" data-name="Layer 2" xmlns="http://www.w3.org/2000/svg" viewBox="0 0 849.39 374.01">
  <defs>
    <style>
      .cls-1 {
        fill: #4a4aff;
      }

      .cls-2 {
        fill: #ef8800;
      }

      .cls-3 {
        fill: #03deca;
      }

      .cls-4 {
        fill: #fff;
      }

      .cls-5 {
        fill: #fac4ee;
      }

      .cls-6 {
        fill: #8c80fc;
      }

      .cls-7 {
        fill: #f143ae;
      }

      .cls-8 {
        fill: #1f1515;
      }

      .cls-9 {
        fill: #044c58;
      }

      .cls-10 {
        fill: #ffe27e;
      }
    </style>
  </defs>
  <g id="Graphics">
    <g id="VR">
      <g>
        <path class="cls-6" d="M500.58,332.27h-151.77c10.19-18.11,29.42-29.46,50.41-29.46h50.95c20.99,0,40.22,11.35,50.41,29.46Z"/>
        <path class="cls-1" d="M500.58,337.27h-151.77c-1.78,0-3.42-.94-4.32-2.48-.9-1.53-.91-3.43-.04-4.98,11.11-19.74,32.1-32.01,54.77-32.01h50.95c22.67,0,43.66,12.26,54.77,32.01.87,1.55.86,3.44-.04,4.98-.9,1.53-2.54,2.48-4.32,2.48ZM358.25,327.27h132.9c-9.93-12.18-24.95-19.46-40.97-19.46h-50.95c-16.02,0-31.04,7.28-40.97,19.46Z"/>
      </g>
      <g>
        <path class="cls-5" d="M364.01,38.78v-.12c0-18.59-15.07-33.66-33.66-33.66h-159.63c-31.42,0-56.89,25.47-56.89,56.9,0,4.08.73,7.99,2.05,11.61l248.13-34.73Z"/>
        <path class="cls-7" d="M115.88,78.51c-2.04,0-3.95-1.25-4.69-3.28-1.57-4.27-2.36-8.75-2.36-13.33C108.83,27.77,136.59,0,170.72,0h159.63c21.32,0,38.66,17.34,38.66,38.66v.12c0,2.76-2.24,5-5,5s-5-2.24-5-5v-.12c0-15.8-12.86-28.66-28.66-28.66h-159.63c-28.61,0-51.89,23.28-51.89,51.9,0,3.4.59,6.72,1.75,9.89.95,2.59-.38,5.47-2.97,6.42-.57.21-1.15.31-1.72.31Z"/>
      </g>
      <g>
        <path class="cls-5" d="M733.51,73.51c1.33-3.62,2.05-7.53,2.05-11.61,0-31.43-25.47-56.9-56.89-56.9h-159.63c-18.59,0-33.66,15.07-33.66,33.66v.12l248.13,34.73Z"/>
        <path class="cls-7" d="M733.51,78.51c-.57,0-1.15-.1-1.72-.31-2.59-.95-3.92-3.82-2.97-6.42,1.16-3.16,1.75-6.49,1.75-9.89,0-28.62-23.28-51.9-51.89-51.9h-159.63c-15.8,0-28.66,12.86-28.66,28.66v.12c0,2.76-2.24,5-5,5s-5-2.24-5-5v-.12c0-21.32,17.34-38.66,38.66-38.66h159.63c34.13,0,61.89,27.77,61.89,61.9,0,4.58-.79,9.06-2.36,13.33-.74,2.02-2.66,3.28-4.69,3.28Z"/>
      </g>
      <polygon class="cls-8" points="745.47 83.78 849.39 83.78 849.39 332.27 736.03 332.27 745.47 83.78"/>
      <polygon class="cls-8" points="103.91 83.78 0 83.78 0 332.27 113.35 332.27 103.91 83.78"/>
      <g>
        <path class="cls-3" d="M797.3,203.89c0,91.19-73.92,165.12-165.11,165.12h-77.43c-22.36,0-42.72-12.89-52.29-33.1-.59-1.24-1.22-2.46-1.89-3.64-10.19-18.11-29.42-29.46-50.41-29.46h-50.95c-20.99,0-40.22,11.35-50.41,29.46-.67,1.18-1.3,2.4-1.89,3.64-9.57,20.21-29.94,33.1-52.3,33.1h-77.43c-91.18,0-165.1-73.93-165.1-165.12,0-45.59,18.48-86.87,48.35-116.74,29.88-29.89,71.16-48.37,116.75-48.37h415c45.59,0,86.87,18.48,116.75,48.37,29.88,29.87,48.36,71.15,48.36,116.74Z"/>
        <path class="cls-9" d="M632.19,374.01h-77.43c-24.17,0-46.46-14.12-56.81-35.96-.55-1.16-1.13-2.28-1.72-3.31-9.35-16.62-27-26.93-46.06-26.93h-50.95c-19.07,0-36.71,10.31-46.05,26.91-.6,1.05-1.18,2.17-1.73,3.34-10.34,21.84-32.64,35.95-56.82,35.95h-77.43c-93.79,0-170.1-76.32-170.1-170.12,0-45.44,17.69-88.15,49.81-120.28,32.12-32.14,74.84-49.83,120.29-49.83h415c45.44,0,88.16,17.7,120.29,49.83,32.13,32.12,49.82,74.83,49.82,120.27,0,93.8-76.31,170.12-170.11,170.12ZM399.22,297.81h50.95c22.67,0,43.66,12.26,54.77,32.01.7,1.23,1.39,2.56,2.05,3.95,8.7,18.38,27.45,30.25,47.77,30.25h77.43c88.29,0,160.11-71.83,160.11-160.12,0-42.77-16.65-82.97-46.9-113.2-30.24-30.25-70.44-46.91-113.21-46.91H217.19c-42.77,0-82.98,16.66-113.21,46.91-30.24,30.23-46.89,70.44-46.89,113.2,0,88.29,71.82,160.12,160.1,160.12h77.43c20.33,0,39.08-11.87,47.78-30.24.66-1.39,1.35-2.73,2.06-3.97,11.1-19.73,32.09-31.99,54.76-31.99Z"/>
      </g>
      <g>
        <rect class="cls-10" x="334.71" y="85.69" width="179.96" height="71.98"/>
        <path class="cls-2" d="M514.68,162.68h-179.96c-2.76,0-5-2.24-5-5v-71.98c0-2.76,2.24-5,5-5h179.96c2.76,0,5,2.24,5,5v71.98c0,2.76-2.24,5-5,5ZM339.71,152.68h169.96v-61.98h-169.96v61.98Z"/>
      </g>
      <g>
        <rect class="cls-6" x="334.71" y="85.69" width="35.99" height="35.99"/>
        <path class="cls-1" d="M370.71,126.69h-35.99c-2.76,0-5-2.24-5-5v-35.99c0-2.76,2.24-5,5-5h35.99c2.76,0,5,2.24,5,5v35.99c0,2.76-2.24,5-5,5ZM339.71,116.69h25.99v-25.99h-25.99v25.99Z"/>
      </g>
      <g>
        <rect class="cls-5" x="370.71" y="121.69" width="35.99" height="35.99"/>
        <path class="cls-7" d="M406.7,162.68h-35.99c-2.76,0-5-2.24-5-5v-35.99c0-2.76,2.24-5,5-5h35.99c2.76,0,5,2.24,5,5v35.99c0,2.76-2.24,5-5,5ZM375.71,152.68h25.99v-25.99h-25.99v25.99Z"/>
      </g>
      <g>
        <rect class="cls-6" x="406.7" y="85.69" width="35.99" height="35.99"/>
        <path class="cls-1" d="M442.69,126.69h-35.99c-2.76,0-5-2.24-5-5v-35.99c0-2.76,2.24-5,5-5h35.99c2.76,0,5,2.24,5,5v35.99c0,2.76-2.24,5-5,5ZM411.7,116.69h25.99v-25.99h-25.99v25.99Z"/>
      </g>
      <g>
        <rect class="cls-6" x="442.69" y="121.69" width="35.99" height="35.99"/>
        <path class="cls-1" d="M478.68,162.68h-35.99c-2.76,0-5-2.24-5-5v-35.99c0-2.76,2.24-5,5-5h35.99c2.76,0,5,2.24,5,5v35.99c0,2.76-2.24,5-5,5ZM447.69,152.68h25.99v-25.99h-25.99v25.99Z"/>
      </g>
      <g>
        <rect class="cls-5" x="478.68" y="85.69" width="35.99" height="35.99"/>
        <path class="cls-7" d="M514.68,126.69h-35.99c-2.76,0-5-2.24-5-5v-35.99c0-2.76,2.24-5,5-5h35.99c2.76,0,5,2.24,5,5v35.99c0,2.76-2.24,5-5,5ZM483.68,116.69h25.99v-25.99h-25.99v25.99Z"/>
      </g>
      <path class="cls-4" d="M39.24,337.27c-2.76,0-5-2.24-5-5V83.78c0-2.76,2.24-5,5-5s5,2.24,5,5v248.48c0,2.76-2.24,5-5,5Z"/>
      <path class="cls-4" d="M810.15,337.27c-2.76,0-5-2.24-5-5V83.78c0-2.76,2.24-5,5-5s5,2.24,5,5v248.48c0,2.76-2.24,5-5,5Z"/>
      <g>
        <circle class="cls-10" cx="674.33" cy="300.49" r="19.16"/>
        <path class="cls-2" d="M674.33,324.65c-13.32,0-24.16-10.84-24.16-24.16s10.84-24.16,24.16-24.16,24.16,10.84,24.16,24.16-10.84,24.16-24.16,24.16ZM674.33,286.33c-7.81,0-14.16,6.35-14.16,14.16s6.35,14.16,14.16,14.16,14.16-6.35,14.16-14.16-6.35-14.16-14.16-14.16Z"/>
      </g>
      <g>
        <circle class="cls-10" cx="723.1" cy="247.08" r="19.16"/>
        <path class="cls-2" d="M723.1,271.24c-13.32,0-24.16-10.84-24.16-24.16s10.84-24.16,24.16-24.16,24.16,10.84,24.16,24.16-10.84,24.16-24.16,24.16ZM723.1,232.92c-7.81,0-14.16,6.35-14.16,14.16s6.35,14.16,14.16,14.16,14.16-6.35,14.16-14.16-6.35-14.16-14.16-14.16Z"/>
      </g>
      <rect class="cls-4" x="138.12" y="92.15" width="23.22" height="23.22"/>
      <rect class="cls-4" x="114.9" y="115.37" width="23.22" height="23.22"/>
      <rect class="cls-4" x="324.49" y="277.27" width="23.22" height="23.22"/>
      <rect class="cls-4" x="301.27" y="300.49" width="23.22" height="23.22"/>
      <rect class="cls-4" x="742.26" y="163.78" width="23.22" height="23.22"/>
      <rect class="cls-4" x="618.82" y="332.27" width="23.22" height="23.22"/>
      <rect class="cls-4" x="719.04" y="187" width="23.22" height="23.22"/>
    </g>
  </g>
</svg>