<?xml version="1.0" encoding="UTF-8"?>
<svg id="Layer_2" data-name="Layer 2" xmlns="http://www.w3.org/2000/svg" viewBox="0 0 794.13 490.03">
  <defs>
    <style>
      .cls-1 {
        fill: #4a4aff;
      }

      .cls-2 {
        fill: #ef8800;
      }

      .cls-3 {
        fill: #fff;
      }

      .cls-4 {
        fill: #fac4ee;
      }

      .cls-5, .cls-6 {
        fill: #8c80fc;
      }

      .cls-7 {
        fill: #f143ae;
      }

      .cls-6 {
        stroke: #4a4aff;
        stroke-linecap: round;
        stroke-linejoin: round;
        stroke-width: 10px;
      }

      .cls-8 {
        fill: #ff4d56;
      }

      .cls-9 {
        fill: #e20000;
      }

      .cls-10 {
        fill: #ffe27e;
      }
    </style>
  </defs>
  <g id="Graphics">
    <g id="Game_Controller" data-name="Game Controller">
      <g>
        <path class="cls-10" d="M273.02,97.3c-22.34-32.93-60.08-54.56-102.87-54.56-22.82,0-44.2,6.15-62.58,16.89l8.42-27.52c4.93-16.11,19.8-27.11,36.65-27.11h68.38c17.81,0,33.26,12.26,37.32,29.6l14.68,62.7Z"/>
        <path class="cls-2" d="M273.03,102.3c-1.62,0-3.18-.79-4.14-2.19-22.25-32.79-59.15-52.37-98.73-52.37-21.15,0-41.91,5.6-60.06,16.21-1.78,1.04-4.01.88-5.62-.4-1.61-1.28-2.28-3.42-1.68-5.38l8.42-27.52C116.82,12.32,133.47,0,152.64,0h68.38c20.23,0,37.58,13.76,42.19,33.46l14.68,62.7c.55,2.35-.65,4.75-2.86,5.72-.65.29-1.33.42-2,.42ZM170.15,37.74c35.43,0,68.89,14.48,93.05,39.54l-9.73-41.54c-3.55-15.16-16.89-25.74-32.45-25.74h-68.38c-14.75,0-27.55,9.47-31.87,23.57l-4.93,16.1c16.93-7.84,35.48-11.94,54.31-11.94Z"/>
      </g>
      <g>
        <path class="cls-5" d="M362.3,242.44h-23.22v-23.22h23.22v23.22ZM362.3,170.45h-23.22v-23.22h23.22v23.22ZM408.67,265.66h-23.22v-23.22h23.22v23.22ZM455.05,242.44h-23.22v-23.22h23.22v23.22ZM455.05,170.46h-23.22v-23.23h23.22v23.23ZM785.47,380.24l-49.55-159.33c-20.08,41.59-62.66,70.29-111.94,70.29-68.61,0-124.23-55.62-124.23-124.23,0-25.83,7.88-49.83,21.39-69.7l-248.12.03c13.48,19.87,21.36,43.85,21.36,69.67,0,68.61-55.62,124.23-124.23,124.23-49.29,0-91.87-28.7-111.95-70.29L8.65,380.24c-12.42,39.97,7.73,82.8,46.44,98.71,9.98,4.1,20.4,6.07,30.68,6.07,25.28,0,49.83-11.88,65.39-33.31l101.81-140.13c2.94-4.05,6.8-7.22,11.19-9.33,7.04-21.7,27.41-37.38,51.45-37.38,29.87,0,54.09,24.21,54.09,54.08,0,11.45-3.55,22.06-9.62,30.8,1.1.05,2.22.08,3.34.08h67.28c1.12,0,2.24-.03,3.35-.08-6.07-8.73-9.62-19.35-9.62-30.79,0-29.87,24.21-54.09,54.08-54.09,24.04,0,44.42,15.69,51.46,37.38,4.39,2.11,8.25,5.28,11.18,9.33l101.81,140.13c15.57,21.43,40.12,33.32,65.39,33.32,10.29,0,20.7-1.98,30.68-6.08,38.71-15.9,58.87-58.74,46.44-98.71ZM522.46,95.36c-.45.63-.89,1.27-1.32,1.91h.9l.42-1.91Z"/>
        <path class="cls-1" d="M708.35,490.03c-27.38,0-53.34-13.23-69.44-35.38l-101.81-140.13c-2.39-3.3-5.61-5.99-9.3-7.76-1.23-.59-2.17-1.66-2.59-2.96-6.59-20.29-25.35-33.92-46.7-33.92-27.06,0-49.08,22.02-49.08,49.09,0,10.07,3.02,19.73,8.73,27.94,1.04,1.5,1.18,3.44.38,5.07-.81,1.63-2.44,2.7-4.26,2.78-1.28.06-2.45.08-3.57.08h-67.28c-1.12,0-2.32-.03-3.57-.08-1.82-.08-3.45-1.15-4.26-2.78s-.66-3.57.38-5.07c5.71-8.22,8.73-17.88,8.73-27.95,0-27.06-22.02-49.08-49.09-49.08-21.35,0-40.11,13.63-46.69,33.92-.42,1.3-1.36,2.37-2.59,2.96-3.69,1.78-6.91,4.46-9.31,7.76l-101.81,140.13c-16.08,22.15-42.04,35.37-69.43,35.37-11.21,0-22.17-2.17-32.58-6.44-19.88-8.17-35.87-23.38-45.02-42.83s-10.68-41.46-4.3-61.99l49.55-159.33c.61-1.96,2.36-3.35,4.4-3.5,2.05-.15,3.98.96,4.87,2.81,19.79,40.98,61.96,67.46,107.45,67.46,65.74,0,119.23-53.49,119.23-119.23,0-23.98-7.09-47.1-20.5-66.86-1.04-1.53-1.15-3.51-.28-5.15s2.57-2.66,4.42-2.66l245.51-.03c1.41-1.79,3.86-2.41,5.96-1.48,2.17.96,3.36,3.32,2.85,5.64l-.42,1.91c-.35,1.57-1.41,2.84-2.81,3.48-12.68,19.36-19.37,41.84-19.37,65.15,0,65.74,53.49,119.23,119.23,119.23,45.48,0,87.65-26.48,107.44-67.46.89-1.85,2.84-2.96,4.87-2.81,2.05.15,3.79,1.54,4.4,3.5l49.55,159.33c6.38,20.53,4.86,42.54-4.29,61.99-9.15,19.45-25.14,34.66-45.02,42.83-10.43,4.28-21.39,6.46-32.58,6.46ZM534.05,298.74c4.39,2.46,8.21,5.85,11.15,9.91l101.8,140.12c14.22,19.57,37.15,31.26,61.35,31.26,9.88,0,19.56-1.92,28.78-5.71,36.58-15.03,55.31-54.83,43.57-92.6h0l-46.03-148.01c-10.24,16.96-24.26,31.38-41.07,42.15-20.77,13.31-44.84,20.34-69.62,20.34-71.26,0-129.23-57.97-129.23-129.23,0-22.92,5.97-45.1,17.34-64.7l-230.03.03c11.36,19.61,17.32,41.78,17.32,64.67,0,71.26-57.97,129.23-129.23,129.23-24.78,0-48.85-7.03-69.63-20.34-16.81-10.77-30.83-25.19-41.07-42.15L13.43,381.73c-11.73,37.76,7,77.57,43.57,92.6,9.2,3.78,18.88,5.69,28.78,5.69,24.21,0,47.14-11.68,61.34-31.25l101.81-140.13c2.94-4.06,6.77-7.45,11.16-9.9,8.47-23.34,30.53-38.87,55.53-38.87,32.58,0,59.09,26.5,59.09,59.08,0,9.07-2.04,17.87-5.95,25.88h56.63c-3.91-8-5.95-16.8-5.95-25.87,0-32.58,26.5-59.09,59.08-59.09,25,0,47.06,15.53,55.54,38.87ZM408.67,270.66h-23.22c-2.76,0-5-2.24-5-5v-23.22c0-2.76,2.24-5,5-5h23.22c2.76,0,5,2.24,5,5v23.22c0,2.76-2.24,5-5,5ZM390.45,260.66h13.22v-13.22h-13.22v13.22ZM455.05,247.44h-23.22c-2.76,0-5-2.24-5-5v-23.22c0-2.76,2.24-5,5-5h23.22c2.76,0,5,2.24,5,5v23.22c0,2.76-2.24,5-5,5ZM436.83,237.44h13.22v-13.22h-13.22v13.22ZM362.3,247.44h-23.22c-2.76,0-5-2.24-5-5v-23.22c0-2.76,2.24-5,5-5h23.22c2.76,0,5,2.24,5,5v23.22c0,2.76-2.24,5-5,5ZM344.08,237.44h13.22v-13.22h-13.22v13.22ZM455.05,175.46h-23.22c-2.76,0-5-2.24-5-5v-23.23c0-2.76,2.24-5,5-5h23.22c2.76,0,5,2.24,5,5v23.23c0,2.76-2.24,5-5,5ZM436.83,165.46h13.22v-13.23h-13.22v13.23ZM362.3,175.45h-23.22c-2.76,0-5-2.24-5-5v-23.22c0-2.76,2.24-5,5-5h23.22c2.76,0,5,2.24,5,5v23.22c0,2.76-2.24,5-5,5ZM344.08,165.45h13.22v-13.22h-13.22v13.22Z"/>
      </g>
      <g>
        <path class="cls-10" d="M686.56,59.63c-18.38-10.74-39.76-16.89-62.58-16.89-41.94,0-79.03,20.78-101.52,52.62l13.32-60.76c4.06-17.34,19.52-29.6,37.32-29.6h68.39c16.84,0,31.71,11,36.65,27.11l8.42,27.52Z"/>
        <path class="cls-2" d="M522.46,100.36c-.68,0-1.36-.14-2.02-.42-2.18-.96-3.38-3.32-2.87-5.65l13.32-60.76C535.53,13.76,552.88,0,573.1,0h68.39c19.16,0,35.81,12.31,41.43,30.64l8.42,27.52c.6,1.97-.06,4.11-1.68,5.38-1.62,1.28-3.85,1.43-5.63.4-18.15-10.6-38.91-16.21-60.06-16.21-38.67,0-75.1,18.88-97.44,50.5-.96,1.36-2.5,2.12-4.09,2.12ZM573.1,10c-15.56,0-28.9,10.58-32.45,25.74l-8.94,40.76c24.12-24.56,57.34-38.76,92.27-38.76,18.82,0,37.38,4.1,54.31,11.94l-4.93-16.1c-4.32-14.1-17.13-23.57-31.87-23.57h-68.39Z"/>
      </g>
      <path class="cls-6" d="M273.02,97.3c-22.34-32.93-60.08-54.56-102.87-54.56-22.82,0-44.2,6.15-62.58,16.89-36.88,21.54-61.66,61.55-61.66,107.34,0,19.33,4.41,37.62,12.29,53.93h0c20.08,41.6,62.66,70.3,111.95,70.3,68.61,0,124.23-55.62,124.23-124.23,0-25.82-7.88-49.8-21.36-69.67ZM247.35,193.09h-51.08v51.09h-52.25v-51.09h-51.08v-52.25h51.08v-51.08h52.25v51.08h51.08v52.25Z"/>
      <g>
        <path class="cls-10" d="M315.61,264.87c-24.04,0-44.41,15.68-51.45,37.38-1.71,5.26-2.63,10.87-2.63,16.7,0,29.88,24.21,54.09,54.08,54.09,18.43,0,34.7-9.21,44.47-23.29,6.07-8.74,9.62-19.35,9.62-30.8,0-29.87-24.22-54.08-54.09-54.08ZM315.61,346.71c-15.33,0-27.75-12.43-27.75-27.76s12.42-27.75,27.75-27.75,27.76,12.43,27.76,27.75-12.43,27.76-27.76,27.76Z"/>
        <path class="cls-2" d="M315.61,378.04c-32.58,0-59.08-26.51-59.08-59.09,0-6.24.97-12.38,2.88-18.25,7.92-24.42,30.51-40.83,56.2-40.83,32.58,0,59.09,26.5,59.09,59.08,0,12.11-3.64,23.75-10.51,33.65-11.05,15.93-29.21,25.44-48.58,25.44ZM315.61,269.87c-21.35,0-40.11,13.63-46.69,33.92-1.58,4.87-2.39,9.97-2.39,15.16,0,27.07,22.02,49.09,49.08,49.09,16.09,0,31.18-7.9,40.36-21.14,5.71-8.22,8.73-17.89,8.73-27.95,0-27.06-22.02-49.08-49.09-49.08ZM315.61,351.71c-18.06,0-32.75-14.7-32.75-32.76s14.69-32.75,32.75-32.75,32.76,14.69,32.76,32.75-14.7,32.76-32.76,32.76ZM315.61,296.2c-12.54,0-22.75,10.21-22.75,22.75s10.21,22.76,22.75,22.76,22.76-10.21,22.76-22.76-10.21-22.75-22.76-22.75Z"/>
      </g>
      <g>
        <path class="cls-4" d="M343.37,318.95c0,15.33-12.43,27.76-27.76,27.76s-27.75-12.43-27.75-27.76,12.42-27.75,27.75-27.75,27.76,12.43,27.76,27.75Z"/>
        <path class="cls-7" d="M315.61,351.71c-18.06,0-32.75-14.7-32.75-32.76s14.69-32.75,32.75-32.75,32.76,14.69,32.76,32.75-14.7,32.76-32.76,32.76ZM315.61,296.2c-12.54,0-22.75,10.21-22.75,22.75s10.21,22.76,22.75,22.76,22.76-10.21,22.76-22.76-10.21-22.75-22.76-22.75Z"/>
      </g>
      <g>
        <polygon class="cls-4" points="247.35 140.84 247.35 193.09 196.27 193.09 170.15 166.97 196.27 140.84 247.35 140.84"/>
        <path class="cls-7" d="M247.35,198.09h-51.08c-1.33,0-2.6-.53-3.54-1.46l-26.12-26.12c-1.95-1.95-1.95-5.12,0-7.07l26.12-26.13c.94-.94,2.21-1.46,3.54-1.46h51.08c2.76,0,5,2.24,5,5v52.25c0,2.76-2.24,5-5,5ZM198.34,188.09h44.01v-42.25h-44.01l-21.12,21.13,21.12,21.12Z"/>
      </g>
      <g>
        <polygon class="cls-4" points="196.27 89.76 196.27 140.84 170.15 166.97 144.02 140.84 144.02 89.76 196.27 89.76"/>
        <path class="cls-7" d="M170.15,171.97c-1.33,0-2.6-.53-3.54-1.46l-26.13-26.13c-.94-.94-1.46-2.21-1.46-3.54v-51.08c0-2.76,2.24-5,5-5h52.25c2.76,0,5,2.24,5,5v51.08c0,1.33-.53,2.6-1.46,3.54l-26.12,26.13c-.94.94-2.21,1.46-3.54,1.46ZM149.02,138.77l21.13,21.13,21.12-21.13v-44.01h-42.25v44.01Z"/>
      </g>
      <g>
        <polygon class="cls-4" points="196.27 193.09 196.27 244.18 144.02 244.18 144.02 193.09 170.15 166.97 196.27 193.09"/>
        <path class="cls-7" d="M196.27,249.18h-52.25c-2.76,0-5-2.24-5-5v-51.09c0-1.33.53-2.6,1.47-3.54l26.13-26.12c1.95-1.95,5.12-1.95,7.07,0l26.12,26.12c.94.94,1.46,2.21,1.46,3.54v51.09c0,2.76-2.24,5-5,5ZM149.02,239.18h42.25v-44.02l-21.12-21.12-21.13,21.12v44.02Z"/>
      </g>
      <g>
        <polygon class="cls-4" points="170.15 166.97 144.02 193.09 92.94 193.09 92.94 140.84 144.02 140.84 170.15 166.97"/>
        <path class="cls-7" d="M144.02,198.09h-51.08c-2.76,0-5-2.24-5-5v-52.25c0-2.76,2.24-5,5-5h51.08c1.33,0,2.6.53,3.54,1.46l26.13,26.13c.94.94,1.46,2.21,1.46,3.54s-.53,2.6-1.47,3.54l-26.13,26.12c-.94.94-2.21,1.46-3.53,1.46ZM97.94,188.09h44.01l21.13-21.12-21.13-21.13h-44.01v42.25Z"/>
      </g>
      <path class="cls-6" d="M686.56,59.63c-18.38-10.74-39.76-16.89-62.58-16.89-68.61,0-124.23,55.62-124.23,124.23s55.62,124.23,124.23,124.23c49.28,0,91.86-28.7,111.94-70.29h0c7.88-16.32,12.29-34.61,12.29-53.94,0-45.79-24.77-85.79-61.65-107.34ZM623.98,89.76c14.43,0,26.12,11.69,26.12,26.12s-11.69,26.12-26.12,26.12-26.12-11.69-26.12-26.12,11.69-26.12,26.12-26.12ZM572.9,193.1c-14.43,0-26.13-11.7-26.13-26.13s11.7-26.12,26.13-26.12,26.12,11.7,26.12,26.12-11.7,26.13-26.12,26.13ZM623.98,244.18c-14.43,0-26.12-11.69-26.12-26.12s11.69-26.12,26.12-26.12,26.13,11.69,26.13,26.12-11.7,26.12-26.13,26.12ZM675.07,193.09c-14.43,0-26.13-11.69-26.13-26.12s11.7-26.12,26.13-26.12,26.12,11.69,26.12,26.12-11.7,26.12-26.12,26.12Z"/>
      <g>
        <path class="cls-10" d="M529.97,302.25c-7.04-21.69-27.42-37.38-51.46-37.38-29.87,0-54.08,24.22-54.08,54.09,0,11.44,3.55,22.06,9.62,30.79,9.76,14.07,26.03,23.29,44.46,23.29,29.87,0,54.09-24.21,54.09-54.08,0-5.83-.92-11.45-2.63-16.71ZM478.51,346.71c-15.32,0-27.75-12.42-27.75-27.75s12.43-27.76,27.75-27.76,27.76,12.43,27.76,27.76-12.43,27.75-27.76,27.75Z"/>
        <path class="cls-2" d="M478.51,378.04c-19.36,0-37.52-9.51-48.57-25.44-6.88-9.89-10.51-21.52-10.51-33.64,0-32.58,26.5-59.09,59.08-59.09,25.7,0,48.29,16.41,56.22,40.83h0c1.91,5.87,2.88,12.01,2.88,18.26,0,32.58-26.51,59.08-59.09,59.08ZM478.51,269.87c-27.06,0-49.08,22.02-49.08,49.09,0,10.07,3.02,19.73,8.73,27.94,9.19,13.24,24.27,21.14,40.35,21.14,27.07,0,49.09-22.02,49.09-49.08,0-5.19-.8-10.3-2.38-15.16,0,0,0,0,0,0-6.59-20.29-25.35-33.92-46.7-33.92ZM478.51,351.71c-18.06,0-32.75-14.69-32.75-32.75s14.69-32.76,32.75-32.76,32.76,14.7,32.76,32.76-14.7,32.75-32.76,32.75ZM478.51,296.2c-12.54,0-22.75,10.21-22.75,22.76s10.21,22.75,22.75,22.75,22.76-10.21,22.76-22.75-10.21-22.76-22.76-22.76Z"/>
      </g>
      <g>
        <path class="cls-4" d="M506.27,318.96c0,15.33-12.43,27.75-27.76,27.75s-27.75-12.42-27.75-27.75,12.43-27.76,27.75-27.76,27.76,12.43,27.76,27.76Z"/>
        <path class="cls-7" d="M478.51,351.71c-18.06,0-32.75-14.69-32.75-32.75s14.69-32.76,32.75-32.76,32.76,14.7,32.76,32.76-14.7,32.75-32.76,32.75ZM478.51,296.2c-12.54,0-22.75,10.21-22.75,22.76s10.21,22.75,22.75,22.75,22.76-10.21,22.76-22.75-10.21-22.76-22.76-22.76Z"/>
      </g>
      <g>
        <rect class="cls-8" x="431.83" y="147.23" width="23.22" height="23.23"/>
        <path class="cls-9" d="M455.05,175.46h-23.22c-2.76,0-5-2.24-5-5v-23.23c0-2.76,2.24-5,5-5h23.22c2.76,0,5,2.24,5,5v23.23c0,2.76-2.24,5-5,5ZM436.83,165.46h13.22v-13.23h-13.22v13.23Z"/>
      </g>
      <g>
        <rect class="cls-8" x="339.08" y="147.23" width="23.22" height="23.22"/>
        <path class="cls-9" d="M362.3,175.45h-23.22c-2.76,0-5-2.24-5-5v-23.22c0-2.76,2.24-5,5-5h23.22c2.76,0,5,2.24,5,5v23.22c0,2.76-2.24,5-5,5ZM344.08,165.45h13.22v-13.22h-13.22v13.22Z"/>
      </g>
      <g>
        <rect class="cls-8" x="339.08" y="219.22" width="23.22" height="23.22"/>
        <path class="cls-9" d="M362.3,247.44h-23.22c-2.76,0-5-2.24-5-5v-23.22c0-2.76,2.24-5,5-5h23.22c2.76,0,5,2.24,5,5v23.22c0,2.76-2.24,5-5,5ZM344.08,237.44h13.22v-13.22h-13.22v13.22Z"/>
      </g>
      <rect class="cls-3" x="95.96" y="94.13" width="23.22" height="23.22"/>
      <rect class="cls-3" x="55.94" y="279.59" width="23.22" height="23.22"/>
      <rect class="cls-3" x="79.16" y="302.81" width="23.22" height="23.22"/>
      <rect class="cls-3" x="651.85" y="74.08" width="23.22" height="23.22"/>
      <rect class="cls-3" x="675.07" y="97.3" width="23.22" height="23.22"/>
      <g>
        <rect class="cls-8" x="431.83" y="219.22" width="23.22" height="23.22"/>
        <path class="cls-9" d="M455.05,247.44h-23.22c-2.76,0-5-2.24-5-5v-23.22c0-2.76,2.24-5,5-5h23.22c2.76,0,5,2.24,5,5v23.22c0,2.76-2.24,5-5,5ZM436.83,237.44h13.22v-13.22h-13.22v13.22Z"/>
      </g>
      <g>
        <rect class="cls-8" x="385.45" y="242.44" width="23.22" height="23.22"/>
        <path class="cls-9" d="M408.67,270.66h-23.22c-2.76,0-5-2.24-5-5v-23.22c0-2.76,2.24-5,5-5h23.22c2.76,0,5,2.24,5,5v23.22c0,2.76-2.24,5-5,5ZM390.45,260.66h13.22v-13.22h-13.22v13.22Z"/>
      </g>
      <g>
        <circle class="cls-4" cx="623.98" cy="115.88" r="26.12"/>
        <path class="cls-7" d="M623.98,147c-17.16,0-31.12-13.96-31.12-31.12s13.96-31.12,31.12-31.12,31.12,13.96,31.12,31.12-13.96,31.12-31.12,31.12ZM623.98,94.76c-11.65,0-21.12,9.47-21.12,21.12s9.47,21.12,21.12,21.12,21.12-9.47,21.12-21.12-9.47-21.12-21.12-21.12Z"/>
      </g>
      <g>
        <path class="cls-4" d="M701.19,166.97c0,14.43-11.7,26.12-26.12,26.12s-26.13-11.69-26.13-26.12,11.7-26.12,26.13-26.12,26.12,11.69,26.12,26.12Z"/>
        <path class="cls-7" d="M675.07,198.09c-17.17,0-31.13-13.96-31.13-31.12s13.96-31.12,31.13-31.12,31.12,13.96,31.12,31.12-13.96,31.12-31.12,31.12ZM675.07,145.85c-11.65,0-21.13,9.47-21.13,21.12s9.48,21.12,21.13,21.12,21.12-9.47,21.12-21.12-9.47-21.12-21.12-21.12Z"/>
      </g>
      <g>
        <path class="cls-4" d="M650.11,218.06c0,14.43-11.7,26.12-26.13,26.12s-26.12-11.69-26.12-26.12,11.69-26.12,26.12-26.12,26.13,11.69,26.13,26.12Z"/>
        <path class="cls-7" d="M623.98,249.18c-17.16,0-31.12-13.96-31.12-31.12s13.96-31.12,31.12-31.12,31.13,13.96,31.13,31.12-13.96,31.12-31.13,31.12ZM623.98,196.94c-11.65,0-21.12,9.47-21.12,21.12s9.47,21.12,21.12,21.12,21.13-9.47,21.13-21.12-9.48-21.12-21.13-21.12Z"/>
      </g>
      <g>
        <path class="cls-4" d="M599.02,166.97c0,14.43-11.7,26.13-26.12,26.13s-26.13-11.7-26.13-26.13,11.7-26.12,26.13-26.12,26.12,11.7,26.12,26.12Z"/>
        <path class="cls-7" d="M572.9,198.1c-17.17,0-31.13-13.96-31.13-31.13s13.96-31.12,31.13-31.12,31.12,13.96,31.12,31.12-13.96,31.13-31.12,31.13ZM572.9,145.85c-11.65,0-21.13,9.47-21.13,21.12s9.48,21.13,21.13,21.13,21.12-9.48,21.12-21.13-9.47-21.12-21.12-21.12Z"/>
      </g>
    </g>
  </g>
</svg>