<?xml version="1.0" encoding="UTF-8"?>
<svg id="Layer_2" data-name="Layer 2" xmlns="http://www.w3.org/2000/svg" viewBox="0 0 880.25 423.95">
  <defs>
    <style>
      .cls-1 {
        fill: #4a4aff;
      }

      .cls-2 {
        fill: #fff;
      }

      .cls-3 {
        fill: #fac4ee;
      }

      .cls-4 {
        fill: #8c80fc;
      }

      .cls-5 {
        fill: #f143ae;
      }
    </style>
  </defs>
  <g id="Graphics">
    <g id="Diamond">
      <g>
        <polygon class="cls-3" points="186.28 93.95 118.15 211.97 5 211.97 124.5 5 186.28 93.95"/>
        <path class="cls-5" d="M118.15,216.97H5c-1.79,0-3.44-.95-4.33-2.5s-.89-3.45,0-5L120.17,2.5c.86-1.48,2.41-2.42,4.12-2.5,1.72-.07,3.34.74,4.31,2.14l61.78,88.95c1.1,1.59,1.19,3.67.22,5.35l-68.13,118.02c-.89,1.55-2.54,2.5-4.33,2.5ZM13.66,206.97h101.6l65.1-112.77L124.89,14.33,13.66,206.97Z"/>
      </g>
      <g>
        <polygon class="cls-3" points="875.25 211.97 755.75 418.94 693.97 329.99 762.11 211.97 875.25 211.97"/>
        <path class="cls-5" d="M755.75,423.94c-1.63,0-3.17-.8-4.11-2.15l-61.78-88.95c-1.1-1.59-1.19-3.68-.22-5.35l68.14-118.02c.89-1.55,2.54-2.5,4.33-2.5h113.14c1.79,0,3.44.95,4.33,2.5s.89,3.45,0,5l-119.5,206.97c-.86,1.48-2.41,2.42-4.12,2.5-.07,0-.14,0-.21,0ZM699.89,329.75l55.47,79.87,111.23-192.64h-101.59l-65.11,112.77Z"/>
      </g>
      <g>
        <polygon class="cls-4" points="762.11 211.97 693.97 329.99 755.75 418.94 124.5 418.94 5 211.97 118.15 211.97 186.28 93.95 124.5 5 755.75 5 875.25 211.97 762.11 211.97"/>
        <path class="cls-1" d="M755.75,423.94H124.5c-1.79,0-3.44-.95-4.33-2.5L.67,214.47c-.89-1.55-.89-3.45,0-5s2.54-2.5,4.33-2.5h110.26l65.1-112.77L120.39,7.86c-1.06-1.53-1.19-3.52-.32-5.17C120.93,1.04,122.64,0,124.5,0h631.25c1.79,0,3.44.95,4.33,2.5l119.5,206.97c.89,1.55.89,3.45,0,5s-2.54,2.5-4.33,2.5h-110.25l-65.11,112.77,59.97,86.34c1.06,1.53,1.19,3.52.32,5.17-.86,1.65-2.57,2.68-4.43,2.68ZM127.39,413.94h618.8l-56.33-81.1c-1.1-1.59-1.19-3.68-.22-5.35l68.14-118.02c.89-1.55,2.54-2.5,4.33-2.5h104.48L752.86,10H134.06l56.33,81.1c1.1,1.59,1.19,3.67.22,5.35l-68.13,118.02c-.89,1.55-2.54,2.5-4.33,2.5H13.66l113.73,196.97Z"/>
      </g>
      <g>
        <polygon class="cls-4" points="338.97 329.99 186.28 329.99 118.15 211.97 186.28 93.95 232.19 93.95 338.97 329.99"/>
        <path class="cls-1" d="M338.97,334.99h-152.69c-1.79,0-3.44-.95-4.33-2.5l-68.13-118.02c-.89-1.55-.89-3.45,0-5l68.13-118.02c.89-1.55,2.54-2.5,4.33-2.5h45.91c2.76,0,5,2.24,5,5s-2.24,5-5,5h-43.02l-65.24,113.02,65.24,113.02h149.8c2.76,0,5,2.24,5,5s-2.24,5-5,5Z"/>
      </g>
      <path class="cls-1" d="M574.81,334.99h-103.41c-2.76,0-5-2.24-5-5s2.24-5,5-5h103.41c2.76,0,5,2.24,5,5s-2.24,5-5,5Z"/>
      <path class="cls-1" d="M409.92,98.95h-71.53c-2.76,0-5-2.24-5-5s2.24-5,5-5h71.53c2.76,0,5,2.24,5,5s-2.24,5-5,5Z"/>
      <g>
        <polygon class="cls-4" points="502.2 93.95 693.97 93.95 762.11 211.97 693.97 329.99 644.97 329.99 502.2 93.95"/>
        <path class="cls-1" d="M693.97,334.99h-49c-2.76,0-5-2.24-5-5s2.24-5,5-5h46.11l65.25-113.02-65.25-113.02h-188.88c-2.76,0-5-2.24-5-5s2.24-5,5-5h191.77c1.79,0,3.44.95,4.33,2.5l68.14,118.02c.89,1.55.89,3.45,0,5l-68.14,118.02c-.89,1.55-2.54,2.5-4.33,2.5Z"/>
      </g>
      <g>
        <path class="cls-4" d="M124.5,418.95l61.78-88.96-61.78,88.96Z"/>
        <path class="cls-1" d="M124.49,423.95c-.98,0-1.98-.29-2.85-.89-2.27-1.58-2.83-4.69-1.25-6.96l61.78-88.96c1.57-2.27,4.69-2.83,6.96-1.25,2.27,1.58,2.83,4.69,1.25,6.96l-61.78,88.96c-.97,1.4-2.53,2.15-4.11,2.15Z"/>
      </g>
      <g>
        <path class="cls-4" d="M693.97,93.96l61.78-88.96-61.78,88.96Z"/>
        <path class="cls-1" d="M693.96,98.96c-.98,0-1.98-.29-2.85-.89-2.27-1.58-2.83-4.69-1.25-6.96L751.65,2.15c1.57-2.27,4.69-2.83,6.96-1.25,2.27,1.58,2.83,4.69,1.25,6.96l-61.78,88.96c-.97,1.4-2.53,2.15-4.11,2.15Z"/>
      </g>
      <g>
        <path class="cls-2" d="M644.97,329.99h-70.16c-30.17-25.24-60.9-54.44-88.63-86.79-22.68-26.47-42.61-58.95-57.72-94.42-1.17-2.76-9.28-30.27-18.54-54.83h92.28c9.07,31.88,20.76,69.11,39.95,93.02,13.89,17.32,29.67,27.57,43.92,43.91,17.2,19.69,33.49,43.37,46.92,67.95,4.08,7.46,8.08,20.55,11.98,31.16Z"/>
        <path class="cls-1" d="M644.97,334.99h-70.16c-1.17,0-2.31-.41-3.21-1.17-33.6-28.11-63.62-57.51-89.22-87.37-23.1-26.96-43.33-60.05-58.52-95.71-.44-1.04-1.21-3.46-3.08-9.33-3.44-10.8-9.19-28.88-15.54-45.7-.58-1.54-.37-3.26.57-4.61s2.47-2.16,4.11-2.16h92.28c2.23,0,4.2,1.48,4.81,3.63,9.75,34.29,21.23,69.07,39.04,91.26,7.25,9.05,14.94,16.01,23.08,23.37,6.87,6.22,13.96,12.64,20.71,20.38,17.34,19.85,33.78,43.65,47.54,68.84,3.17,5.79,6.18,14.46,9.1,22.85,1.05,3.01,2.13,6.13,3.18,8.98.56,1.53.34,3.25-.59,4.59-.94,1.34-2.47,2.14-4.1,2.14ZM576.63,324.99h61.25c-.28-.81-.56-1.62-.84-2.42-2.79-8-5.67-16.28-8.43-21.34-13.42-24.56-29.43-47.75-46.3-67.06-6.36-7.3-13.24-13.52-19.89-19.54-8.07-7.31-16.42-14.86-24.17-24.53-18.27-22.76-29.99-57.04-39.82-91.15h-81.33c5.42,14.96,10.2,29.97,13.21,39.43,1.27,3.98,2.47,7.75,2.76,8.45,14.79,34.72,34.47,66.93,56.91,93.11,24.89,29.03,54.04,57.64,86.65,85.04Z"/>
      </g>
      <g>
        <path class="cls-2" d="M471.4,329.99h-132.43c-14.76-54.01-28.21-134.21-106.78-236.04h106.2c24.83,44.19,66.01,121.6,71.5,132.45,18.06,35.71,37.58,77.18,61.51,103.59Z"/>
        <path class="cls-1" d="M471.4,334.99h-132.43c-2.25,0-4.23-1.51-4.82-3.68-1.76-6.44-3.49-13.2-5.32-20.37-13.49-52.75-31.96-124.99-100.59-213.94-1.16-1.51-1.37-3.55-.53-5.26.84-1.71,2.58-2.79,4.49-2.79h106.2c1.81,0,3.47.98,4.36,2.55,25.37,45.15,66.23,122.03,71.6,132.64,1.93,3.82,3.88,7.7,5.84,11.62,15.93,31.77,33.99,67.78,54.91,90.87,1.33,1.47,1.67,3.58.87,5.38-.8,1.81-2.59,2.97-4.57,2.97ZM342.8,324.99h117.84c-18.78-23.73-34.94-55.95-49.38-84.74-1.96-3.91-3.9-7.78-5.83-11.59-5.08-10.04-45.06-85.24-69.97-129.71h-93.2c64.9,86.89,82.95,157.52,96.25,209.51,1.47,5.76,2.88,11.27,4.29,16.53Z"/>
      </g>
      <rect class="cls-2" x="124.5" y="82.55" width="23.22" height="23.22"/>
      <rect class="cls-2" x="101.28" y="105.77" width="23.22" height="23.22"/>
      <rect class="cls-2" x="762.11" y="306.77" width="23.22" height="23.22"/>
      <rect class="cls-2" x="738.89" y="329.99" width="23.22" height="23.22"/>
      <rect class="cls-2" x="603.65" y="128.8" width="23.22" height="23.22"/>
      <rect class="cls-2" x="580.43" y="152.02" width="23.22" height="23.22"/>
      <rect class="cls-2" x="269.94" y="252.92" width="23.22" height="23.22"/>
    </g>
  </g>
</svg>