<?xml version="1.0" encoding="UTF-8"?>
<svg id="Layer_2" data-name="Layer 2" xmlns="http://www.w3.org/2000/svg" viewBox="0 0 794.14 441.91">
  <defs>
    <style>
      .cls-1 {
        fill: #4a4aff;
      }

      .cls-2 {
        fill: #ef8800;
      }

      .cls-3 {
        fill: #fac4ee;
      }

      .cls-4 {
        fill: #8c80fc;
      }

      .cls-5 {
        fill: #f143ae;
      }

      .cls-6 {
        fill: #1f1515;
      }

      .cls-7 {
        fill: #ff4d56;
      }

      .cls-8 {
        fill: #e20000;
      }

      .cls-9 {
        fill: #ffe27e;
      }
    </style>
  </defs>
  <g id="Graphics">
    <g id="Game_Console_02" data-name="Game Console 02">
      <g>
        <rect class="cls-4" x="157.09" y="5" width="479.96" height="431.91"/>
        <path class="cls-1" d="M637.05,441.91H157.09c-2.76,0-5-2.24-5-5V5c0-2.76,2.24-5,5-5h479.96c2.76,0,5,2.24,5,5v431.91c0,2.76-2.24,5-5,5ZM162.09,431.91h469.96V10H162.09v421.91Z"/>
      </g>
      <g>
        <rect class="cls-9" x="199.69" y="46.8" width="394.76" height="348.31"/>
        <path class="cls-2" d="M594.45,400.11H199.69c-2.76,0-5-2.24-5-5V46.8c0-2.76,2.24-5,5-5h394.76c2.76,0,5,2.24,5,5v348.31c0,2.76-2.24,5-5,5ZM204.69,390.11h384.76V51.8H204.69v338.31Z"/>
      </g>
      <g>
        <path class="cls-3" d="M789.14,109.3v223.31c0,57.61-46.69,104.3-104.3,104.3h-47.79V5h47.79c57.61,0,104.3,46.7,104.3,104.3Z"/>
        <path class="cls-5" d="M684.84,441.91h-47.79c-2.76,0-5-2.24-5-5V5c0-2.76,2.24-5,5-5h47.79c60.27,0,109.3,49.03,109.3,109.3v223.31c0,60.27-49.03,109.3-109.3,109.3ZM642.05,431.91h42.79c54.75,0,99.3-44.55,99.3-99.3V109.3c0-54.75-44.55-99.3-99.3-99.3h-42.79v421.91Z"/>
      </g>
      <g>
        <path class="cls-3" d="M157.09,5v431.91h-47.79c-57.6,0-104.3-46.69-104.3-104.3V109.3C5,51.7,51.7,5,109.3,5h47.79Z"/>
        <path class="cls-5" d="M157.09,441.91h-47.79c-60.27,0-109.3-49.03-109.3-109.3V109.3C0,49.03,49.03,0,109.3,0h47.79c2.76,0,5,2.24,5,5v431.91c0,2.76-2.24,5-5,5ZM109.3,10C54.55,10,10,54.55,10,109.3v223.31c0,54.75,44.55,99.3,99.3,99.3h42.79V10h-42.79Z"/>
      </g>
      <g>
        <rect class="cls-6" x="317.4" y="178.8" width="159.35" height="84.31"/>
        <path class="cls-6" d="M476.75,268.11h-159.35c-2.76,0-5-2.24-5-5v-84.31c0-2.76,2.24-5,5-5h159.35c2.76,0,5,2.24,5,5v84.31c0,2.76-2.24,5-5,5ZM322.4,258.11h149.35v-74.31h-149.35v74.31Z"/>
      </g>
      <g>
        <g>
          <polygon class="cls-7" points="122.18 200.96 122.18 229.48 94.29 229.48 80.03 215.22 94.29 200.96 122.18 200.96"/>
          <path class="cls-8" d="M122.18,234.48h-27.89c-1.33,0-2.6-.53-3.54-1.46l-14.26-14.26c-1.95-1.95-1.95-5.12,0-7.07l14.26-14.26c.94-.94,2.21-1.46,3.54-1.46h27.89c2.76,0,5,2.24,5,5v28.53c0,2.76-2.24,5-5,5ZM96.36,224.48h20.82v-18.53h-20.82l-9.26,9.26,9.26,9.26Z"/>
        </g>
        <g>
          <polygon class="cls-7" points="94.29 173.06 94.29 200.96 80.03 215.22 65.77 200.96 65.77 173.06 94.29 173.06"/>
          <path class="cls-8" d="M80.03,220.22c-1.33,0-2.6-.53-3.54-1.46l-14.26-14.26c-.94-.94-1.46-2.21-1.46-3.54v-27.89c0-2.76,2.24-5,5-5h28.52c2.76,0,5,2.24,5,5v27.89c0,1.33-.53,2.6-1.46,3.54l-14.26,14.26c-.94.94-2.21,1.46-3.54,1.46ZM70.77,198.88l9.26,9.26,9.26-9.26v-20.82h-18.52v20.82Z"/>
        </g>
        <g>
          <polygon class="cls-7" points="94.29 229.48 94.29 257.38 65.77 257.38 65.77 229.48 80.03 215.22 94.29 229.48"/>
          <path class="cls-8" d="M94.29,262.38h-28.52c-2.76,0-5-2.24-5-5v-27.89c0-1.33.53-2.6,1.46-3.54l14.26-14.26c.94-.94,2.21-1.46,3.54-1.46h0c1.33,0,2.6.53,3.54,1.46l14.26,14.26c.94.94,1.46,2.21,1.46,3.54v27.89c0,2.76-2.24,5-5,5ZM70.77,252.38h18.52v-20.82l-9.26-9.26-9.26,9.26v20.82Z"/>
        </g>
        <g>
          <polygon class="cls-7" points="80.03 215.22 65.77 229.48 37.87 229.48 37.87 200.96 65.77 200.96 80.03 215.22"/>
          <path class="cls-8" d="M65.77,234.48h-27.89c-2.76,0-5-2.24-5-5v-28.53c0-2.76,2.24-5,5-5h27.89c1.33,0,2.6.53,3.54,1.46l14.26,14.26c.94.94,1.46,2.21,1.46,3.54s-.53,2.6-1.46,3.54l-14.26,14.26c-.94.94-2.21,1.46-3.54,1.46ZM42.88,224.48h20.82l9.26-9.26-9.26-9.26h-20.82v18.53Z"/>
        </g>
      </g>
      <g>
        <g>
          <polygon class="cls-7" points="759.38 200.96 759.38 229.48 731.49 229.48 717.23 215.22 731.49 200.96 759.38 200.96"/>
          <path class="cls-8" d="M759.38,234.48h-27.89c-1.33,0-2.6-.53-3.54-1.46l-14.26-14.26c-1.95-1.95-1.95-5.12,0-7.07l14.26-14.26c.94-.94,2.21-1.46,3.54-1.46h27.89c2.76,0,5,2.24,5,5v28.53c0,2.76-2.24,5-5,5ZM733.56,224.48h20.82v-18.53h-20.82l-9.26,9.26,9.26,9.26Z"/>
        </g>
        <g>
          <polygon class="cls-7" points="731.49 173.06 731.49 200.96 717.23 215.22 702.97 200.96 702.97 173.06 731.49 173.06"/>
          <path class="cls-8" d="M717.23,220.22c-1.33,0-2.6-.53-3.54-1.46l-14.26-14.26c-.94-.94-1.46-2.21-1.46-3.54v-27.89c0-2.76,2.24-5,5-5h28.52c2.76,0,5,2.24,5,5v27.89c0,1.33-.53,2.6-1.46,3.54l-14.26,14.26c-.94.94-2.21,1.46-3.54,1.46ZM707.97,198.88l9.26,9.26,9.26-9.26v-20.82h-18.52v20.82Z"/>
        </g>
        <g>
          <polygon class="cls-7" points="731.49 229.48 731.49 257.38 702.97 257.38 702.97 229.48 717.23 215.22 731.49 229.48"/>
          <path class="cls-8" d="M731.49,262.38h-28.52c-2.76,0-5-2.24-5-5v-27.89c0-1.33.53-2.6,1.46-3.54l14.26-14.26c.94-.94,2.21-1.46,3.54-1.46h0c1.33,0,2.6.53,3.54,1.46l14.26,14.26c.94.94,1.46,2.21,1.46,3.54v27.89c0,2.76-2.24,5-5,5ZM707.97,252.38h18.52v-20.82l-9.26-9.26-9.26,9.26v20.82Z"/>
        </g>
        <g>
          <polygon class="cls-7" points="717.23 215.22 702.97 229.48 675.07 229.48 675.07 200.96 702.97 200.96 717.23 215.22"/>
          <path class="cls-8" d="M702.97,234.48h-27.89c-2.76,0-5-2.24-5-5v-28.53c0-2.76,2.24-5,5-5h27.89c1.33,0,2.6.53,3.54,1.46l14.26,14.26c.94.94,1.46,2.21,1.46,3.54s-.53,2.6-1.46,3.54l-14.26,14.26c-.94.94-2.21,1.46-3.54,1.46ZM680.07,224.48h20.82l9.26-9.26-9.26-9.26h-20.82v18.53Z"/>
        </g>
      </g>
      <g>
        <rect class="cls-7" x="45.2" y="313.26" width="23.22" height="23.22"/>
        <path class="cls-8" d="M68.42,341.48h-23.22c-2.76,0-5-2.24-5-5v-23.22c0-2.76,2.24-5,5-5h23.22c2.76,0,5,2.24,5,5v23.22c0,2.76-2.24,5-5,5ZM50.2,331.48h13.22v-13.22h-13.22v13.22Z"/>
      </g>
      <g>
        <rect class="cls-7" x="68.42" y="336.48" width="23.22" height="23.22"/>
        <path class="cls-8" d="M91.64,364.7h-23.22c-2.76,0-5-2.24-5-5v-23.22c0-2.76,2.24-5,5-5h23.22c2.76,0,5,2.24,5,5v23.22c0,2.76-2.24,5-5,5ZM73.42,354.7h13.22v-13.22h-13.22v13.22Z"/>
      </g>
      <g>
        <rect class="cls-7" x="91.64" y="313.26" width="23.22" height="23.22"/>
        <path class="cls-8" d="M114.86,341.48h-23.22c-2.76,0-5-2.24-5-5v-23.22c0-2.76,2.24-5,5-5h23.22c2.76,0,5,2.24,5,5v23.22c0,2.76-2.24,5-5,5ZM96.64,331.48h13.22v-13.22h-13.22v13.22Z"/>
      </g>
      <g>
        <rect class="cls-7" x="682.4" y="313.26" width="23.22" height="23.22"/>
        <path class="cls-8" d="M705.62,341.48h-23.22c-2.76,0-5-2.24-5-5v-23.22c0-2.76,2.24-5,5-5h23.22c2.76,0,5,2.24,5,5v23.22c0,2.76-2.24,5-5,5ZM687.4,331.48h13.22v-13.22h-13.22v13.22Z"/>
      </g>
      <g>
        <rect class="cls-7" x="705.62" y="336.48" width="23.22" height="23.22"/>
        <path class="cls-8" d="M728.84,364.7h-23.22c-2.76,0-5-2.24-5-5v-23.22c0-2.76,2.24-5,5-5h23.22c2.76,0,5,2.24,5,5v23.22c0,2.76-2.24,5-5,5ZM710.62,354.7h13.22v-13.22h-13.22v13.22Z"/>
      </g>
      <g>
        <rect class="cls-6" x="453.53" y="266.82" width="23.22" height="23.22"/>
        <path class="cls-6" d="M476.75,295.04h-23.22c-2.76,0-5-2.24-5-5v-23.22c0-2.76,2.24-5,5-5h23.22c2.76,0,5,2.24,5,5v23.22c0,2.76-2.24,5-5,5ZM458.53,285.04h13.22v-13.22h-13.22v13.22Z"/>
      </g>
      <g>
        <rect class="cls-6" x="476.75" y="290.04" width="23.22" height="23.22"/>
        <path class="cls-6" d="M499.97,318.26h-23.22c-2.76,0-5-2.24-5-5v-23.22c0-2.76,2.24-5,5-5h23.22c2.76,0,5,2.24,5,5v23.22c0,2.76-2.24,5-5,5ZM481.75,308.26h13.22v-13.22h-13.22v13.22Z"/>
      </g>
      <g>
        <rect class="cls-6" x="499.97" y="128.65" width="23.22" height="23.22"/>
        <path class="cls-6" d="M523.19,156.87h-23.22c-2.76,0-5-2.24-5-5v-23.22c0-2.76,2.24-5,5-5h23.22c2.76,0,5,2.24,5,5v23.22c0,2.76-2.24,5-5,5ZM504.97,146.87h13.22v-13.22h-13.22v13.22Z"/>
      </g>
      <g>
        <rect class="cls-6" x="523.19" y="105.43" width="23.22" height="23.22"/>
        <path class="cls-6" d="M546.41,133.65h-23.22c-2.76,0-5-2.24-5-5v-23.22c0-2.76,2.24-5,5-5h23.22c2.76,0,5,2.24,5,5v23.22c0,2.76-2.24,5-5,5ZM528.19,123.65h13.22v-13.22h-13.22v13.22Z"/>
      </g>
      <g>
        <rect class="cls-6" x="255.43" y="324.87" width="23.22" height="23.22"/>
        <path class="cls-6" d="M278.65,353.09h-23.22c-2.76,0-5-2.24-5-5v-23.22c0-2.76,2.24-5,5-5h23.22c2.76,0,5,2.24,5,5v23.22c0,2.76-2.24,5-5,5ZM260.43,343.09h13.22v-13.22h-13.22v13.22Z"/>
      </g>
      <g>
        <rect class="cls-6" x="317.4" y="266.82" width="23.22" height="23.22"/>
        <path class="cls-6" d="M340.62,295.04h-23.22c-2.76,0-5-2.24-5-5v-23.22c0-2.76,2.24-5,5-5h23.22c2.76,0,5,2.24,5,5v23.22c0,2.76-2.24,5-5,5ZM322.4,285.04h13.22v-13.22h-13.22v13.22Z"/>
      </g>
      <rect class="cls-9" x="340.62" y="178.8" width="23.22" height="23.22"/>
      <rect class="cls-9" x="408.68" y="178.8" width="23.22" height="23.22"/>
      <g>
        <rect class="cls-6" x="340.62" y="290.04" width="23.22" height="23.22"/>
        <path class="cls-6" d="M363.84,318.26h-23.22c-2.76,0-5-2.24-5-5v-23.22c0-2.76,2.24-5,5-5h23.22c2.76,0,5,2.24,5,5v23.22c0,2.76-2.24,5-5,5ZM345.62,308.26h13.22v-13.22h-13.22v13.22Z"/>
      </g>
      <g>
        <rect class="cls-6" x="385.46" y="266.82" width="23.22" height="23.22"/>
        <path class="cls-6" d="M408.68,295.04h-23.22c-2.76,0-5-2.24-5-5v-23.22c0-2.76,2.24-5,5-5h23.22c2.76,0,5,2.24,5,5v23.22c0,2.76-2.24,5-5,5ZM390.46,285.04h13.22v-13.22h-13.22v13.22Z"/>
      </g>
      <g>
        <rect class="cls-6" x="340.62" y="151.87" width="91.29" height="23.22"/>
        <path class="cls-6" d="M431.9,180.09h-91.29c-2.76,0-5-2.24-5-5v-23.22c0-2.76,2.24-5,5-5h91.29c2.76,0,5,2.24,5,5v23.22c0,2.76-2.24,5-5,5ZM345.62,170.09h81.29v-13.22h-81.29v13.22Z"/>
      </g>
      <g>
        <rect class="cls-6" x="408.68" y="290.04" width="23.22" height="23.22"/>
        <path class="cls-6" d="M431.9,318.26h-23.22c-2.76,0-5-2.24-5-5v-23.22c0-2.76,2.24-5,5-5h23.22c2.76,0,5,2.24,5,5v23.22c0,2.76-2.24,5-5,5ZM413.68,308.26h13.22v-13.22h-13.22v13.22Z"/>
      </g>
      <g>
        <rect class="cls-7" x="728.84" y="313.26" width="23.22" height="23.22"/>
        <path class="cls-8" d="M752.06,341.48h-23.22c-2.76,0-5-2.24-5-5v-23.22c0-2.76,2.24-5,5-5h23.22c2.76,0,5,2.24,5,5v23.22c0,2.76-2.24,5-5,5ZM733.84,331.48h13.22v-13.22h-13.22v13.22Z"/>
      </g>
      <g>
        <rect class="cls-7" x="43.64" y="82.21" width="23.22" height="23.22"/>
        <path class="cls-8" d="M66.86,110.43h-23.22c-2.76,0-5-2.24-5-5v-23.22c0-2.76,2.24-5,5-5h23.22c2.76,0,5,2.24,5,5v23.22c0,2.76-2.24,5-5,5ZM48.64,100.43h13.22v-13.22h-13.22v13.22Z"/>
      </g>
      <g>
        <rect class="cls-7" x="66.86" y="105.43" width="23.22" height="23.22"/>
        <path class="cls-8" d="M90.08,133.65h-23.22c-2.76,0-5-2.24-5-5v-23.22c0-2.76,2.24-5,5-5h23.22c2.76,0,5,2.24,5,5v23.22c0,2.76-2.24,5-5,5ZM71.86,123.65h13.22v-13.22h-13.22v13.22Z"/>
      </g>
      <g>
        <rect class="cls-7" x="90.08" y="82.21" width="23.22" height="23.22"/>
        <path class="cls-8" d="M113.3,110.43h-23.22c-2.76,0-5-2.24-5-5v-23.22c0-2.76,2.24-5,5-5h23.22c2.76,0,5,2.24,5,5v23.22c0,2.76-2.24,5-5,5ZM95.08,100.43h13.22v-13.22h-13.22v13.22Z"/>
      </g>
      <g>
        <rect class="cls-7" x="680.84" y="82.21" width="23.22" height="23.22"/>
        <path class="cls-8" d="M704.06,110.43h-23.22c-2.76,0-5-2.24-5-5v-23.22c0-2.76,2.24-5,5-5h23.22c2.76,0,5,2.24,5,5v23.22c0,2.76-2.24,5-5,5ZM685.84,100.43h13.22v-13.22h-13.22v13.22Z"/>
      </g>
      <g>
        <rect class="cls-7" x="704.06" y="105.43" width="23.22" height="23.22"/>
        <path class="cls-8" d="M727.28,133.65h-23.22c-2.76,0-5-2.24-5-5v-23.22c0-2.76,2.24-5,5-5h23.22c2.76,0,5,2.24,5,5v23.22c0,2.76-2.24,5-5,5ZM709.06,123.65h13.22v-13.22h-13.22v13.22Z"/>
      </g>
      <g>
        <rect class="cls-7" x="727.28" y="82.21" width="23.22" height="23.22"/>
        <path class="cls-8" d="M750.5,110.43h-23.22c-2.76,0-5-2.24-5-5v-23.22c0-2.76,2.24-5,5-5h23.22c2.76,0,5,2.24,5,5v23.22c0,2.76-2.24,5-5,5ZM732.28,100.43h13.22v-13.22h-13.22v13.22Z"/>
      </g>
    </g>
  </g>
</svg>