<?xml version="1.0" encoding="UTF-8"?>
<svg id="Layer_2" data-name="Layer 2" xmlns="http://www.w3.org/2000/svg" viewBox="0 0 213.62 200.88">
  <defs>
    <style>
      .cls-1 {
        fill: #4a4aff;
      }

      .cls-2 {
        fill: #8c80fc;
      }

      .cls-3 {
        fill: #1f1515;
      }
    </style>
  </defs>
  <g id="Graphics">
    <g id="Icon_02" data-name="Icon 02">
      <g>
        <g>
          <polygon class="cls-3" points="208.62 82.41 208.62 139.78 152.52 139.78 131.22 118.47 174.56 118.47 174.56 61.09 208.62 82.41"/>
          <path class="cls-3" d="M208.62,144.78h-56.09c-1.33,0-2.6-.53-3.54-1.47l-21.3-21.31c-1.43-1.43-1.86-3.58-1.08-5.45.77-1.87,2.6-3.09,4.62-3.09h38.34v-52.37c0-1.82.99-3.49,2.58-4.37s3.53-.83,5.08.14l34.06,21.31c1.46.91,2.35,2.52,2.35,4.24v57.37c0,2.76-2.24,5-5,5ZM154.6,134.78h49.02v-49.6l-24.06-15.06v48.35c0,2.76-2.24,5-5,5h-31.27l11.31,11.31Z"/>
        </g>
        <g>
          <polygon class="cls-3" points="152.52 26.31 152.52 61.09 118.47 61.09 118.47 5 152.52 26.31"/>
          <path class="cls-3" d="M152.52,66.09h-34.05c-2.76,0-5-2.24-5-5V5c0-1.82.99-3.49,2.58-4.37s3.53-.83,5.08.14l34.05,21.31c1.46.91,2.35,2.52,2.35,4.24v34.78c0,2.76-2.24,5-5,5ZM123.47,56.09h24.05v-27.01l-24.05-15.06v42.07Z"/>
        </g>
        <g>
          <polygon class="cls-3" points="152.52 139.78 152.52 195.88 95.15 195.88 61.1 174.58 118.47 174.58 118.47 118.47 131.22 118.47 152.52 139.78"/>
          <path class="cls-3" d="M152.52,200.88h-57.37c-.94,0-1.86-.26-2.65-.76l-34.05-21.3c-1.89-1.18-2.77-3.47-2.15-5.62.62-2.14,2.58-3.62,4.81-3.62h52.37v-51.11c0-2.76,2.24-5,5-5h12.75c1.33,0,2.6.53,3.54,1.47l21.3,21.31c.94.94,1.46,2.21,1.46,3.53v56.09c0,2.76-2.24,5-5,5ZM96.59,190.88h50.94v-49.02l-18.37-18.38h-5.68v51.11c0,2.76-2.24,5-5,5h-39.95l18.07,11.3Z"/>
        </g>
        <g>
          <polygon class="cls-3" points="61.1 118.47 61.1 139.78 39.07 139.78 5 118.47 61.1 118.47"/>
          <path class="cls-3" d="M61.1,144.78h-22.03c-.94,0-1.86-.26-2.65-.76L2.35,122.71c-1.89-1.18-2.77-3.47-2.15-5.62.62-2.14,2.58-3.62,4.81-3.62h56.09c2.76,0,5,2.24,5,5v21.31c0,2.76-2.24,5-5,5ZM40.5,134.78h15.59v-11.31H22.42l18.08,11.31Z"/>
        </g>
      </g>
      <g>
        <g>
          <polygon class="cls-2" points="174.56 61.09 174.56 118.47 118.47 118.47 89.79 89.79 96.16 83.4 118.47 61.09 174.56 61.09"/>
          <path class="cls-1" d="M174.56,123.47h-56.09c-1.33,0-2.6-.53-3.54-1.46l-28.68-28.68c-1.95-1.95-1.95-5.11,0-7.07l28.68-28.7c.94-.94,2.21-1.46,3.54-1.46h56.09c2.76,0,5,2.24,5,5v57.37c0,2.76-2.24,5-5,5ZM120.54,113.47h49.02v-47.37h-49.02l-23.68,23.69,23.68,23.68Z"/>
        </g>
        <g>
          <polygon class="cls-2" points="118.47 5 118.47 61.09 96.16 83.4 89.79 89.79 61.1 61.09 61.1 5 118.47 5"/>
          <path class="cls-1" d="M89.79,94.79c-1.33,0-2.6-.53-3.54-1.46l-28.69-28.69c-.94-.94-1.46-2.21-1.46-3.54V5c0-2.76,2.24-5,5-5h57.37c2.76,0,5,2.24,5,5v56.09c0,1.33-.53,2.6-1.46,3.54l-28.68,28.69c-.94.94-2.21,1.47-3.54,1.47h0ZM66.1,59.02l23.69,23.69,23.68-23.69V10h-47.37v49.02Z"/>
        </g>
        <g>
          <polygon class="cls-2" points="118.47 118.47 118.47 174.58 61.1 174.58 61.1 118.47 89.79 89.79 118.47 118.47"/>
          <path class="cls-1" d="M118.47,179.58h-57.37c-2.76,0-5-2.24-5-5v-56.11c0-1.33.53-2.6,1.47-3.54l28.69-28.68c1.95-1.95,5.12-1.95,7.07,0l28.68,28.68c.94.94,1.46,2.21,1.46,3.54v56.11c0,2.76-2.24,5-5,5ZM66.1,169.58h47.37v-49.04l-23.68-23.68-23.69,23.68v49.04Z"/>
        </g>
        <g>
          <polygon class="cls-2" points="89.79 89.79 61.1 118.47 5 118.47 5 61.09 61.1 61.09 89.79 89.79"/>
          <path class="cls-1" d="M61.1,123.47H5C2.24,123.47,0,121.23,0,118.47v-57.37c0-2.76,2.24-5,5-5h56.09c1.33,0,2.6.53,3.54,1.46l28.69,28.69c.94.94,1.46,2.21,1.46,3.54s-.53,2.6-1.47,3.54l-28.69,28.68c-.94.94-2.21,1.46-3.53,1.46ZM10,113.47h49.02l23.69-23.68-23.69-23.69H10v47.37Z"/>
        </g>
      </g>
    </g>
  </g>
</svg>