<?xml version="1.0" encoding="UTF-8"?>
<svg id="Layer_2" data-name="Layer 2" xmlns="http://www.w3.org/2000/svg" viewBox="0 0 539.34 454.24">
  <defs>
    <style>
      .cls-1 {
        fill: #ef8800;
      }

      .cls-2 {
        fill: #fff;
      }

      .cls-3 {
        fill: #ffbe1d;
      }

      .cls-4 {
        fill: #ffe27e;
      }
    </style>
  </defs>
  <g id="Graphics">
    <g id="Coin">
      <g>
        <path class="cls-3" d="M449.25,227.13c0,92.53-56.58,171.85-137.04,205.23-13.55,5.63-27.79,9.96-42.54,12.81-13.77,2.67-28,4.07-42.54,4.07-64.1,0-121.86-27.15-162.4-70.57l56.94-36.08,113.7-72.06,36.3-23,104.94-66.5c-9.21-29.9-27.15-55.98-50.84-75.26l-85.1,53.93-39.4,24.96-1.47.94-40.1,25.41-84.46,53.52-57.64,36.53c-8.16-23.12-12.6-48.01-12.6-73.93C5,104.45,104.45,5,227.13,5c14.54,0,28.77,1.4,42.54,4.07,14.75,2.86,28.99,7.18,42.54,12.81,26.77,11.11,50.89,27.3,71.17,47.38,21.55,21.32,38.76,47.04,50.17,75.68,10.13,25.42,15.7,53.16,15.7,82.19Z"/>
        <path class="cls-1" d="M227.13,454.24c-32.04,0-63.01-6.54-92.06-19.43-28.06-12.45-52.96-30.19-73.99-52.73-1.02-1.09-1.49-2.57-1.3-4.05.19-1.48,1.03-2.79,2.28-3.59l308.61-195.57c-8.73-26.01-24.31-49.03-45.3-66.93L20.28,305.28c-1.29.82-2.87,1-4.31.5-1.44-.5-2.57-1.62-3.08-3.06C4.33,278.5,0,253.06,0,227.13c0-60.67,23.63-117.71,66.52-160.61C109.42,23.63,166.46,0,227.13,0c14.62,0,29.25,1.4,43.49,4.16,14.9,2.89,29.54,7.3,43.51,13.1,27.24,11.3,51.72,27.6,72.77,48.44,22.42,22.18,39.68,48.21,51.3,77.38,10.65,26.73,16.05,55.01,16.05,84.04,0,45.78-13.56,89.91-39.21,127.61-25.04,36.8-59.94,65.24-100.91,82.24-14.01,5.82-28.65,10.23-43.51,13.1-14.24,2.76-28.87,4.16-43.49,4.16ZM72.57,379.62c40.64,41.14,96.62,64.62,154.56,64.62,13.98,0,27.97-1.34,41.59-3.98,14.19-2.74,28.18-6.95,41.57-12.52,81.38-33.76,133.96-112.51,133.96-200.61,0-27.76-5.16-54.79-15.34-80.34-11.11-27.88-27.61-52.77-49.04-73.98-20.13-19.93-43.53-35.51-69.57-46.32-13.35-5.55-27.34-9.76-41.58-12.52-13.61-2.64-27.61-3.98-41.59-3.98C107.4,10,10,107.4,10,227.13c0,22.68,3.46,44.95,10.31,66.3L323.09,101.55c1.82-1.15,4.16-1.01,5.83.35,24.92,20.28,43.06,47.13,52.46,77.67.66,2.16-.2,4.49-2.1,5.69L72.57,379.62Z"/>
      </g>
      <g>
        <path class="cls-3" d="M521.47,301.79c-30.66,85.94-112.78,147.45-209.26,147.45h-85.08c14.54,0,28.77-1.4,42.54-4.07,14.75-2.85,28.99-7.18,42.54-12.81,57.71-23.94,103.13-71.51,124.2-130.64l42.1.03,42.96.04Z"/>
        <path class="cls-1" d="M312.21,454.24h-85.08c-2.76,0-5-2.24-5-5s2.24-5,5-5c13.98,0,27.97-1.34,41.59-3.98,14.19-2.74,28.18-6.95,41.57-12.52,56.61-23.48,100.86-70.03,121.41-127.7.71-1.99,2.6-3.32,4.71-3.32h0l85.06.07c1.62,0,3.15.79,4.08,2.12.94,1.33,1.17,3.03.62,4.56-32.17,90.18-118.16,150.77-213.97,150.77ZM293.99,444.24h18.22c89.21,0,169.51-54.94,202.05-137.46l-74.35-.06c-21.99,58.79-67.66,106.15-125.78,130.26-6.59,2.74-13.32,5.16-20.14,7.26Z"/>
      </g>
      <g>
        <path class="cls-4" d="M534.34,227.13c0,26.2-4.54,51.33-12.87,74.66l-42.96-.04-42.1-.03c8.32-23.32,12.84-48.43,12.84-74.59,0-92.54-56.58-171.86-137.04-205.25-13.55-5.63-27.79-9.95-42.54-12.81-13.77-2.67-28-4.07-42.54-4.07h85.08c122.67,0,222.13,99.45,222.13,222.13Z"/>
        <path class="cls-1" d="M521.47,306.79h0l-85.06-.07c-1.62,0-3.15-.79-4.08-2.12-.94-1.33-1.17-3.03-.62-4.56,8.33-23.34,12.55-47.87,12.55-72.91,0-88.11-52.58-166.86-133.96-200.63-13.35-5.55-27.34-9.76-41.58-12.52-13.61-2.64-27.61-3.98-41.59-3.98-2.76,0-5-2.24-5-5s2.24-5,5-5h85.08c60.67,0,117.7,23.63,160.6,66.52,42.9,42.9,66.53,99.94,66.53,160.61,0,26.2-4.43,51.88-13.16,76.34-.71,1.99-2.6,3.32-4.71,3.32ZM443.38,296.73l74.53.06c7.58-22.38,11.42-45.79,11.42-69.66,0-119.73-97.4-217.13-217.13-217.13h-18.23c6.84,2.1,13.57,4.53,20.15,7.26,40.97,17,75.87,45.44,100.91,82.25,25.65,37.7,39.21,81.83,39.21,127.62,0,23.81-3.65,47.19-10.87,69.59Z"/>
      </g>
      <g>
        <path class="cls-4" d="M325.77,105.77l-85.1,53.93-39.4,24.96-1.47.94-40.1,25.41-84.46,53.52c-2.94-11.99-4.5-24.52-4.5-37.41,0-86.37,70.02-156.38,156.39-156.38,37.4,0,71.73,13.13,98.64,35.03Z"/>
        <path class="cls-1" d="M75.24,269.53c-.63,0-1.27-.12-1.87-.36-1.49-.6-2.6-1.88-2.99-3.45-3.08-12.57-4.64-25.55-4.64-38.6,0-88.99,72.4-161.38,161.39-161.38,37,0,73.15,12.84,101.8,36.15,1.25,1.02,1.93,2.57,1.83,4.17s-.96,3.07-2.31,3.93l-250.53,158.76c-.81.51-1.74.78-2.68.78ZM227.13,75.74c-83.48,0-151.39,67.91-151.39,151.38,0,9.89.96,19.74,2.85,29.37l238.5-151.13c-25.92-19.15-57.59-29.62-89.95-29.62Z"/>
      </g>
      <g>
        <path class="cls-4" d="M383.51,227.12c0,86.37-70.01,156.39-156.38,156.39-40.63,0-77.65-15.5-105.46-40.92l113.7-72.06,36.3-23,104.94-66.5c4.49,14.57,6.9,30.05,6.9,46.09Z"/>
        <path class="cls-1" d="M227.13,388.51c-40.39,0-79.04-15-108.83-42.23-1.15-1.05-1.74-2.58-1.61-4.13.14-1.55.99-2.95,2.3-3.78l254.94-161.56c1.32-.83,2.95-1.01,4.41-.47,1.46.54,2.59,1.73,3.05,3.22,4.73,15.34,7.12,31.34,7.12,47.56,0,88.99-72.39,161.39-161.38,161.39ZM130,343.23c27.21,22.79,61.45,35.28,97.13,35.28,83.47,0,151.38-67.91,151.38-151.39,0-13-1.64-25.85-4.88-38.28l-243.64,154.4Z"/>
      </g>
      <g>
        <path class="cls-4" d="M364.06,52.21c25.78-.01,54.78,0,85.08,0h0-85.09Z"/>
        <path class="cls-1" d="M449.15,57.22c-30.31-.01-59.3-.02-85.09,0v-10c25.78-.02,54.78,0,85.08,0v10Z"/>
      </g>
      <g>
        <path class="cls-4" d="M410.75,102.11c27.03,0,55.94.04,85.12.06l-85.12-.06Z"/>
        <path class="cls-1" d="M495.87,107.17l-24.22-.02c-20.88-.02-41.38-.03-60.9-.04v-10c19.53,0,40.03.02,60.9.04l24.22.02v10Z"/>
      </g>
      <g>
        <path class="cls-4" d="M436.23,152.01c27.54.01,56.41.04,85.11.08l-85.11-.08Z"/>
        <path class="cls-1" d="M521.33,157.09c-28.7-.04-57.57-.07-85.11-.08v-10c27.55.02,56.42.04,85.12.08v10Z"/>
      </g>
      <g>
        <path class="cls-4" d="M447.84,201.93c27.75.01,56.61.04,85.09.08l-85.09-.08Z"/>
        <path class="cls-1" d="M532.93,207.01c-28.48-.04-57.34-.07-85.09-.08v-10c27.76.01,56.61.04,85.1.08v10Z"/>
      </g>
      <g>
        <path class="cls-4" d="M447.9,251.82c27.74.02,56.59.05,85.07.09l-85.07-.09Z"/>
        <path class="cls-1" d="M532.96,256.91c-28.48-.04-57.32-.07-85.06-.09v-10c27.75.02,56.6.05,85.08.09v10Z"/>
      </g>
      <g>
        <path class="cls-4" d="M478.51,301.75l-42.1-.03c13.76.01,27.86.01,42.1.03Z"/>
        <path class="cls-1" d="M478.51,306.75h-.01l-42.09-.03c-2.76,0-5-2.24-5-5,0-2.76,2.24-5,5-5h13.82c9.33.01,18.78.02,28.29.03,2.76,0,5,2.24,4.99,5.01,0,2.76-2.24,4.99-5,4.99Z"/>
      </g>
      <g>
        <path class="cls-4" d="M411.12,351.6h0c27.02,0,55.89.03,85.04.06l-85.05-.06Z"/>
        <path class="cls-1" d="M496.16,356.66c-29.15-.03-58.02-.05-85.03-.06v-10s0,0,0,0c27.02,0,55.89.03,85.04.06v10Z"/>
      </g>
      <g>
        <path class="cls-4" d="M364.71,401.51c25.8-.01,54.8,0,85.07.01h-85.07Z"/>
        <path class="cls-1" d="M449.78,406.53c-30.27-.02-59.26-.03-85.06-.02v-10c25.79-.02,54.79,0,85.07.02v10Z"/>
      </g>
      <g>
        <polygon class="cls-3" points="142.21 193.96 199.8 185.6 159.7 211.01 142.21 193.96"/>
        <path class="cls-1" d="M159.7,216.01c-1.27,0-2.53-.48-3.49-1.42l-17.49-17.05c-1.36-1.33-1.85-3.32-1.26-5.13.59-1.81,2.15-3.13,4.04-3.4l57.59-8.36c2.34-.34,4.59,1,5.41,3.21s-.02,4.7-2.01,5.96l-40.1,25.41c-.82.52-1.75.78-2.67.78ZM152.96,197.45l7.41,7.22,16.98-10.76-24.38,3.54Z"/>
      </g>
      <g>
        <polygon class="cls-3" points="240.67 159.7 201.27 184.66 227.13 132.27 240.67 159.7"/>
        <path class="cls-1" d="M201.27,189.66c-1.2,0-2.4-.43-3.34-1.28-1.67-1.5-2.13-3.92-1.14-5.93l25.86-52.39c.84-1.71,2.58-2.79,4.48-2.79s3.64,1.08,4.48,2.79l13.54,27.43c1.13,2.29.35,5.07-1.81,6.44l-39.4,24.96c-.82.52-1.75.78-2.67.78ZM227.13,143.57l-13.5,27.34,20.56-13.03-7.07-14.32Z"/>
      </g>
      <g>
        <polygon class="cls-3" points="279.61 293.79 235.37 270.53 271.67 247.53 279.61 293.79"/>
        <path class="cls-1" d="M279.61,298.79c-.8,0-1.59-.19-2.33-.57l-44.24-23.26c-1.58-.83-2.6-2.44-2.67-4.22-.07-1.78.81-3.47,2.32-4.43l36.3-23c1.41-.89,3.18-1.02,4.71-.35,1.53.68,2.62,2.08,2.9,3.72l7.94,46.26c.32,1.88-.45,3.77-1.99,4.89-.87.63-1.9.96-2.94.96ZM245.35,270.13l27.62,14.52-4.96-28.88-22.66,14.36Z"/>
      </g>
      <g>
        <path class="cls-2" d="M121.67,342.59l-56.94,36.08c-20.66-22.13-36.85-48.47-47.13-77.61l57.64-36.53c7.5,30.53,23.95,57.53,46.43,78.06Z"/>
        <path class="cls-1" d="M64.73,383.67c-1.35,0-2.68-.54-3.66-1.59-21.54-23.07-37.75-49.77-48.19-79.36-.77-2.2.07-4.64,2.04-5.89l57.64-36.53c1.36-.86,3.05-1.02,4.54-.42,1.49.6,2.61,1.88,2.99,3.45,7.15,29.11,22.69,55.24,44.95,75.56,1.15,1.05,1.75,2.58,1.61,4.13-.14,1.55-.99,2.95-2.3,3.79l-56.94,36.08c-.82.52-1.75.78-2.67.78ZM23.67,303.13c9.52,25.51,23.6,48.71,41.92,69.07l47.99-30.41c-19.56-19.34-33.74-43.11-41.4-69.41l-48.5,30.74Z"/>
      </g>
      <g>
        <polygon class="cls-4" points="269.58 235.35 271.67 247.53 235.37 270.53 227.13 266.2 174.65 293.79 184.67 235.35 159.7 211.01 199.8 185.6 200.89 185.44 201.27 184.66 240.67 159.7 253.37 185.44 312.04 193.96 269.58 235.35"/>
        <path class="cls-1" d="M174.65,298.79c-1.04,0-2.07-.32-2.94-.96-1.54-1.12-2.31-3.01-1.99-4.89l9.58-55.85-23.09-22.5c-1.1-1.07-1.64-2.58-1.48-4.1.16-1.52,1-2.89,2.3-3.71l40.1-25.41c.24-.15.5-.28.76-.39.22-.2.46-.39.71-.55l39.4-24.96c1.2-.76,2.66-.97,4.03-.59,1.37.38,2.5,1.33,3.13,2.6l11.54,23.38,56.07,8.14c1.88.27,3.45,1.59,4.04,3.4.59,1.81.1,3.8-1.27,5.13l-40.58,39.55,1.65,9.59c.34,1.99-.55,3.99-2.25,5.07l-36.3,23c-1.51.96-3.42,1.03-5,.2l-5.91-3.11-50.15,26.37c-.73.38-1.53.57-2.33.57ZM167.72,211.85l20.44,19.92c1.18,1.15,1.72,2.8,1.44,4.43l-8.31,48.46,43.51-22.88c1.46-.77,3.2-.77,4.65,0l5.68,2.99,31.04-19.67-1.53-8.9c-.28-1.62.26-3.28,1.44-4.43l35.21-34.32-48.64-7.06c-1.63-.24-3.04-1.26-3.77-2.74l-10.24-20.75-33.56,21.26c-.78,1.2-2.04,2.01-3.47,2.22h-.04s-33.86,21.46-33.86,21.46Z"/>
      </g>
      <g>
        <polygon class="cls-2" points="200.89 185.44 199.8 185.6 201.27 184.66 200.89 185.44"/>
        <path class="cls-1" d="M199.8,190.6c-2.06,0-3.94-1.27-4.68-3.25-.82-2.21,0-4.69,1.99-5.96l1.47-.94c1.89-1.21,4.35-1.01,6.02.48s2.15,3.91,1.17,5.92l-.38.78c-.72,1.48-2.13,2.52-3.77,2.76l-1.09.16c-.24.04-.49.05-.73.05Z"/>
      </g>
      <g>
        <path class="cls-2" d="M227.13,266.2l8.24,4.33-113.7,72.06c-22.48-20.53-38.93-47.53-46.43-78.06l84.46-53.52,24.97,24.34-10.02,58.44,52.48-27.59Z"/>
        <path class="cls-1" d="M121.67,347.59c-1.22,0-2.43-.44-3.37-1.31-23.72-21.66-40.29-49.52-47.91-80.56-.51-2.09.36-4.27,2.18-5.42l84.46-53.52c1.96-1.24,4.51-.97,6.17.64l24.97,24.34c1.18,1.15,1.72,2.8,1.44,4.43l-8.31,48.46,43.51-22.88c1.46-.77,3.2-.77,4.65,0l8.24,4.33c1.58.83,2.6,2.44,2.67,4.22.07,1.78-.81,3.47-2.32,4.43l-113.7,72.06c-.82.52-1.75.78-2.68.78ZM80.99,266.81c7.18,26.5,21.37,50.39,41.27,69.49l86.21-54.64-31.49,16.56c-1.68.88-3.73.74-5.27-.38-1.54-1.12-2.31-3.01-1.99-4.89l9.58-55.85-20.26-19.75-78.05,49.46Z"/>
      </g>
      <g>
        <path class="cls-2" d="M376.61,181.03l-104.94,66.5-2.09-12.18,42.46-41.39-58.67-8.52-12.7-25.74,85.1-53.93c23.69,19.28,41.63,45.36,50.84,75.26Z"/>
        <path class="cls-1" d="M271.67,252.53c-.69,0-1.38-.14-2.03-.43-1.53-.68-2.62-2.08-2.9-3.72l-2.09-12.18c-.28-1.62.26-3.28,1.44-4.43l35.21-34.32-48.64-7.06c-1.63-.24-3.04-1.26-3.77-2.74l-12.7-25.74c-1.13-2.29-.35-5.07,1.81-6.44l85.1-53.93c1.81-1.15,4.16-1.01,5.83.35,24.92,20.28,43.06,47.13,52.46,77.67.66,2.16-.2,4.49-2.1,5.7l-104.94,66.5c-.81.51-1.74.78-2.68.78ZM274.95,237.1l.38,2.2,95.34-60.41c-8.73-26.01-24.31-49.03-45.3-66.93l-78.23,49.57,9.55,19.35,56.07,8.14c1.88.27,3.45,1.59,4.04,3.4.59,1.81.1,3.8-1.27,5.13l-40.58,39.55Z"/>
      </g>
      <g>
        <path class="cls-2" d="M433.55,144.94l-56.94,36.09c-9.21-29.9-27.15-55.98-50.84-75.26l57.61-36.51c21.55,21.32,38.76,47.04,50.17,75.68Z"/>
        <path class="cls-1" d="M376.61,186.03c-.58,0-1.17-.1-1.73-.31-1.46-.54-2.59-1.73-3.05-3.22-8.82-28.64-25.84-53.83-49.22-72.85-1.25-1.02-1.93-2.57-1.83-4.17.1-1.61.96-3.07,2.31-3.93l57.61-36.51c1.97-1.25,4.54-.97,6.19.67,22.42,22.18,39.68,48.21,51.3,77.38.89,2.23.06,4.79-1.97,6.07l-56.94,36.09c-.81.51-1.74.78-2.68.78ZM334.18,106.36c20.59,18.24,36.06,41.2,45.16,67.02l47.99-30.42c-10.56-25.12-25.57-47.74-44.67-67.32l-48.48,30.72Z"/>
      </g>
      <rect class="cls-4" x="101.46" y="63.05" width="23.22" height="23.22"/>
      <rect class="cls-4" x="240.98" y="29" width="23.22" height="23.22"/>
      <rect class="cls-4" x="78.24" y="86.27" width="23.22" height="23.22"/>
    </g>
  </g>
</svg>